<?xml version="1.0" encoding="utf-8"?>
<!-- Generator: Adobe Illustrator 20.1.0, SVG Export Plug-In . SVG Version: 6.00 Build 0)  -->
<svg version="1.1" id="Layer_1" xmlns="http://www.w3.org/2000/svg" xmlns:xlink="http://www.w3.org/1999/xlink" x="0px" y="0px"
	 viewBox="0 0 1440 900" style="enable-background:new 0 0 1440 900;" xml:space="preserve">
<path d="M425.5,503.2c-0.2-0.2-0.4-0.1-0.6,0c-0.4,0.1-0.7,0.3-0.9,0.7c-0.1,0.2,0,0.3,0.2,0.4c0.5,0.1,0.7-0.3,1-0.6
	C425.3,503.6,425.5,503.5,425.5,503.2 M420.4,482.4c0.4-0.6,0.5-1.2,0.3-1.8c-0.1-0.1-0.2-0.1-0.4,0
	C419.8,481.2,419.9,481.8,420.4,482.4 M417.5,478.7c0-0.4-0.3-0.5-0.6-0.5c-0.4,0-0.6,0.3-0.5,0.7c0,0.3,0.1,0.6,0.5,0.6
	C417.3,479.5,417.4,479,417.5,478.7 M469.5,525.5c1-0.2,2-0.1,2.8-0.8C471.4,524.8,470.4,524.9,469.5,525.5 M412.9,498.9
	c0.2,0.1,0.4,0.1,0.5,0c0.1-0.1,0.1-0.3,0-0.4c-0.4-0.4-1-0.5-1.5-0.3c-0.2,0.1-0.3,0.3-0.2,0.6c0.1,0.2,0.3,0.2,0.4,0.1
	C412.4,498.7,412.7,498.8,412.9,498.9 M442.5,524.1c0.5,0,0.2-0.7,0.7-0.5c0.3,0.1,0.3,0.4,0.2,0.6c0,0.2,0,0.3,0.2,0.3
	c0.1,0,0.2,0,0.3-0.1c0.4-0.4-0.1-0.8-0.2-1.2c-0.1-0.4-0.7-0.5-1.1-0.5c-0.5,0.1-0.1,0.5-0.1,0.8
	C442.5,523.8,442.5,523.9,442.5,524.1 M431.6,461.5c0.4-0.2,0.5-0.6,0.4-0.9c-0.1-0.4-0.1-1-0.8-1c-0.2,0-0.6,0.1-0.5,0.4
	C430.9,460.5,431,461.1,431.6,461.5 M423.3,509.7c0.8,0.3,1.2,1.1,2.2,1.1C424.7,509.1,424.7,509.1,423.3,509.7 M452.6,520.5
	c0.6,0.6,1.3,0.8,2.1,0.8c0.3,0,0.9,0.1,0.9-0.4c0-0.5-0.5-0.7-1-0.6C454,520.5,453.3,520.6,452.6,520.5 M424.4,506.4
	c0.4,0.6,0.7,1.3,1.5,1.3c0.4,0,0.7-0.6,0.5-0.9C426,505.7,425.2,506.6,424.4,506.4 M417.8,469c0.3-1.4-0.2-2.4-0.4-3.5
	c-0.6,0.6-0.6,1.4-0.7,2.1C416.7,468,417.6,468.1,417.8,469 M445.2,520c1.2,0.1,1.9,1.5,2.9,0.1c0.1-0.1,0.4-0.1,0.6-0.1
	c0.5-0.1,1-0.1,1.5-0.2c-0.9-0.7-2.2-0.8-2.8-0.1c-0.4,0.4-0.6,0.4-1,0.2C446.1,519.8,445.9,519.6,445.2,520 M429.8,472.3
	c0.5,1.1-0.3,1.6-0.4,2.4c-0.1,0.5,0.1,0.7,0.6,0.5c0.6-0.3,1.2-0.8,1.2-1.5C431.2,473,430.6,472.6,429.8,472.3 M421.3,488.7
	c0.3,0,0.4-0.2,0.5-0.4c0.3-0.7-0.3-0.8-0.7-1.2c-0.4-0.3-0.6-1.1-0.7,0.1c0,0.2-0.1,0.3-0.4,0.3c-0.2,0-0.3-0.2-0.3-0.3
	c-0.1-0.2,0.1-0.7-0.4-0.5c-0.4,0.2-0.2,0.6-0.1,0.9C419.6,488.7,420.8,488,421.3,488.7 M453.4,529.1c1.2,0,1.9-1.1,2.8-1.6
	c0,0,0.1-0.2,0-0.3c-0.1-0.1-0.2-0.1-0.3-0.1c-0.5,0.5-1.4,0.3-1.9,0.9c-0.3,0.5-0.6,0.8-1.1,0.3c-0.2-0.2-0.6-0.3-0.6,0.2
	c0,0.3,0,0.7,0.4,0.7C453,529.3,453.2,529.2,453.4,529.1 M456.5,528.4c1.1,0,2.3-0.5,2.8,1c0,0.1,0.2,0.1,0.3,0.1
	c0.4-0.3,0.6-0.7,0.7-1.2c0-0.4-0.4-0.9-0.7-0.8C458.6,527.9,457.4,527.6,456.5,528.4 M457.2,529.5c0.6,1.9,1,2.3,2,2.2
	c0.4,0,0.7-0.2,1.1,0c0.3,0.2,0.7-0.1,0.7-0.4c0-0.3-0.3-0.5-0.6-0.5C459.1,531.1,458.3,530.4,457.2,529.5 M419.9,495.5
	c0.1-0.3,0.1-0.5-0.1-0.6c-0.1,0-0.3,0-0.3,0c-0.2,0.6-0.8,0.9-1,1.4c-0.1,0.4,0.5,0.8,0.8,1.2c0.2,0.3,0.6,0.8,1,0.4
	c0.4-0.4,0.3-1,0-1.2C419.7,496.3,419.7,495.9,419.9,495.5 M432.4,462.7c0-0.2-0.1-0.8-0.1-0.7c-0.4,0.7-1.5-0.1-1.5,0.7
	c0,0.7,0.3,1.4,0.9,1.8c0.1,0.1,0.5,0.6,0.8,0.1c0.2-0.3,0.3-0.7,0.1-1C432.4,463.3,432.3,463.1,432.4,462.7 M521.7,497.8
	c0,0.9-0.7,1.4-0.7,2c0,1.1,1.2,0.3,1.7,0.9c0,0.1,0.1,0.1,0.2,0.1c0.2,0.1,0.3,0,0.5-0.2c0.1-0.1,0.1-0.3,0-0.5
	C522.9,499.4,522.5,498.6,521.7,497.8 M465.3,528.5c-0.8-0.1-1.3-0.6-1.9-0.1c-0.6,0.5-1.2,0-1.9,0.1c-0.1,0-0.2,0.1-0.3,0.2
	c-0.1,0.2,0.1,0.3,0.2,0.4c0.7,0.7,1.6,0.6,2.4,0.8C464.4,530,464.8,529.2,465.3,528.5 M441.4,495.5c0.4,0.8,1.1,1.4,1.2,2.2
	c0,0.3,0.3,0.8,0.8,0.6c0.4-0.2,0.8-0.6,0.7-1.1c-0.2-0.9-0.1-2.1-1.7-1.5C442.1,495.7,441.8,495.6,441.4,495.5 M421.6,514
	c-0.4,1.7,0.2,2.4,1.7,2c0.5-0.1,0.7-0.1,0.6,0.4c-0.1,0.3-0.1,0.5,0.2,0.5c0.4,0,0.9-0.2,1.1-0.6c0.2-0.3-0.1-0.4-0.3-0.5
	c-0.5-0.2-1-0.5-1.2-1c-0.1-0.3-0.4-0.3-0.6-0.1C422.4,515.2,421.8,515.2,421.6,514 M418.2,494.6c0.4,0,0.6-0.2,0.6-0.6
	c0.1-0.9-0.4-1.7-0.7-2.5c-0.2-0.4-0.2-0.9-0.7-0.9c-0.3,0-0.6,0.2-0.8,0.5c-0.3,0.5-0.2,1,0.2,1.3c0.5,0.4,0.6,0.9,0.6,1.5
	C417.4,494.3,417.7,494.6,418.2,494.6 M429.1,467.1c0.4,0.6,0.4,1.5,1.2,1.9c0.2,0.1,0.4,0.5,0.7,0.2c0.2-0.2,0.2-0.6,0.4-0.9
	c-1.4-0.5-1-1.2-0.5-2.2c0.2-0.6-0.3-1.4-0.5-2.2c-0.1,1-0.9,1.4-1.8,2.2c0.9-0.1,1.4-0.1,1.5,0.5
	C430,467.3,429.3,466.7,429.1,467.1 M432,455c0-0.9-0.6-1.7-1.3-1.6c-0.9,0.1-1.2,0.7-1.3,1.5c-0.1,0.7,0.9,2.3,1.3,2.3
	C431.1,457.2,432.1,455.6,432,455 M424.5,474.6c0,1.6,0.5,2.4,1.3,2.7c0.4,0.1,0.7,0.2,0.9-0.3c0.1-0.4-0.2-1.3,0.9-1
	c0.3,0.1,0.2-0.5,0-0.7c-0.6-0.6-0.8-1.4-1.2-2.1c-0.2-0.4-0.1-1-0.6-1c-0.7,0,0,0.6-0.2,0.8c-0.1,0.1-0.3,0.1-0.3,0.2
	C424.9,473.8,424.5,474.2,424.5,474.6 M480.7,524.5c-0.9-0.1-1.7-0.2-2.4,0.5c-0.3,0.3-0.7,0.4-0.9-0.1c-0.3-0.7-1-0.6-1.5-0.3
	c-0.7,0.4-1.5,0.8-2.3,0.7c-0.2,0-0.7,0.1-0.6,0.4c0.4,0.6-0.1,0.8-0.3,1.2c-0.2,0.3-0.6,0.5-0.4,0.8c0.2,0.4,0.6,0.2,1,0.1
	c0.2,0,0.3-0.1,0.5-0.2c1.1-0.5,2.1-1.3,3.4-1c0.2,0,0.5-0.1,0.7-0.2C479.1,526.1,479.7,525.1,480.7,524.5 M429.8,518.8
	c0.5,0,1.4-0.2,1.4-0.9c0-0.4-0.4-1.3-0.7-1.5c-1.2-0.7-0.8-1.9-1-2.9c-0.1-0.4-0.1-0.6-0.4-0.8c-0.3-0.2-0.5-0.2-0.8,0.1
	c-0.4,0.3-0.2,0.8-0.1,1.1c0.5,1.2,0.5,1.2-0.8,1.5c-0.4,0.1-0.9,0.4-1.1,0.8c-0.2,0.3,0.5,0.4,0.5,0.6c0.2,0.7,1.1,0.7,1.2,1.1
	C428.3,518.8,429,518.7,429.8,518.8 M428.7,462.4c-0.7,0.1-1.1,0.1-1.3-0.5c-0.1-0.2-0.2-0.4,0-0.5c0.4-0.4,0.8-0.1,1.2,0
	c0.5,0.2,1-0.1,0.8-0.5c-0.4-0.9-0.2-1.6,0.2-2.4c0.1-0.3,0.1-0.6,0.1-1c0-0.3,0-0.5-0.3-0.6c-0.3-0.1-0.7,0.1-0.7,0.3
	c-0.3,1.3-1.5,2-2.2,3c-0.3,0.4-0.6,0.9-0.5,1.4c0.2,0.8,1.1,1.7-0.7,1.8c-0.8,0.1-1.3,2.7-0.8,3.5c0.2,0.4,0.5,0.6,0.8,0.1
	c0.3-0.5,0.7-0.5,1.2-0.4c0.7,0.1,1.2,0,1.1-0.9c0-0.5,0.2-0.7,0.6-0.7c1-0.1,0.8-0.6,0.4-1.1C428.1,463.5,428,463,428.7,462.4
	 M434.1,508.9c-0.3-1-1.1-1.7-1.5-2.6c-0.9-1.8-2.1-3.4-4-4.3c-0.3-0.1-0.6-0.5-1-0.2c-0.5,0.5-0.6,0.3-0.6-0.2
	c-0.1-0.9-0.8-1.4-1.4-2c-0.2-0.2-0.6-0.4-0.9-0.2c-0.3,0.2,0,0.6,0.1,0.8c0.8,1.6,1.5,3.2,2.8,4.5c0.5,0.4,0.8,1.2,0.4,1.5
	c-1,0.8-0.1,1.8-0.7,2.6c-0.1,0.1,0.1,0.4,0.4,0.2c0.3-0.4,0.5-0.1,0.6,0.2c0.1,0.3,0.2,0.5,0.4,0.8c0.5,0.8,0.5,0.8,1.2,0.4
	c0.1-0.1,0.3,0,0.5,0c0.8,0.1,1.6,0.2,2.5,0.2c0.5,0,1.1-0.3,1.2-0.8c0.2-0.7-0.5-0.6-0.9-0.8c-1.1-0.5-1.4-0.9-1.1-1.9
	C432.6,508,433.6,508.1,434.1,508.9 M478.4,482.4c2.3,0.1,4.3-1.8,4.4-4.2c0.1-2.3-1.8-4.3-4.2-4.4c-2.3-0.1-4.3,1.8-4.4,4.2
	C474.1,480.3,476.1,482.4,478.4,482.4 M422.9,490.2c0.2,1.1,0.4,2.1,0.6,3c0.2,1.1,1,1.4,1.9,1c0.3-0.1,0.5,0,0.5,0.2
	c-0.1,1.3,1.3,1,1.8,1.7c0.1,0.2,1.6,0.1,1.6-0.6c0-0.7,0.7-1.8-0.6-2.3c-0.2-0.1-0.3-0.2-0.3-0.4c0-0.1,0.1-0.1,0.2-0.2
	c0.3,0.5,1.3-0.1,1.4,0.7c0.1,0.3,0.3,0.4,0.6,0.4c0.3,0,0.4-0.3,0.4-0.5c0.1-0.7,0.5-1.2,1.2-1.3c0.6-0.1,0.4-0.4,0.2-0.8
	c-0.6-1.5-2.4-2.2-2.5-3.9c0-0.1-0.3-0.3-0.5-0.3c-0.2-0.1-0.4-0.1-0.2-0.4c-0.8-0.5-0.3-1.3-0.6-1.9c-0.3-0.7-1-1.3-0.4-2.2
	c0.1-0.2-0.1-0.3-0.3-0.4c-0.7-0.4-1.2-1-1.6-1.7c-0.3-0.5-0.7-0.9-1.3-0.6c-0.5,0.2-0.7,0.6-0.7,1.3c0,1-0.2,1.9-0.7,2.8
	c-0.2,0.5,0,0.5,0.3,0.5c0.4,0,0.8,0,0.8,0.5c0.1,0.4-0.1,0.7-0.5,1c-0.6,0.4-0.9,1.1-0.6,1.7c0.5,1.1,0.1,1.6-0.8,2.1
	c-0.2,0.1-0.4,0.3-0.6,0.5c-0.4,0.4-0.3,1.5,0.1,1.8c0.1,0.1,0.3,0.1,0.3,0.1c0.1-0.1,0.1-0.2,0.1-0.4
	C422.7,491.1,422.3,490.7,422.9,490.2 M497.9,530c0.6-0.8-0.2-1.8,0.6-2.6c0.2-0.2-0.1-0.3-0.3-0.3c-0.5-0.2-1.1-0.4-1.5,0.1
	c-0.3,0.3-0.4,0.9-0.9,0.6c-0.4-0.2,0-0.7-0.1-1.1c0-0.2,0.1-0.4-0.2-0.6c-0.6,0.2,0,0.9-0.6,1.2c-0.1-0.4-0.2-0.8-0.3-1.2
	c-0.1-0.9-0.4-1.1-1.2-0.6c-0.2,0.1-0.4,0.3-0.5,0.5c-0.5,0.7-1,0.7-1.7,0.2c-1.2-0.9-2.8-0.6-3.8,0.5c-0.6,0.7-1,0.5-1.3-0.2
	c-0.3-0.5-0.5-0.9-1.1-0.7c-0.6,0.1-1.2,0.2-1.2,1c0,0.1,0,0.3-0.1,0.3c-1.3,0.1-1.7,1.5-2.8,2c-0.4,0.2-0.7,0.5-1,0.8
	c-0.3-0.2-0.3-0.4-0.3-0.6c-0.3-1.1-0.4-1.1-1.2-0.4c-1,0.9-3.4,1.1-4.5,0.4c-0.4-0.2-0.3-0.2-0.5,0.3c-0.2,0.5-0.9,0.9-1.4,0.8
	c-1.4-0.3-2.1,0.8-2.9,1.5c-0.4,0.4-0.6,0.5-1,0.2c-0.5-0.3-1-0.4-1.5-0.1c-0.2,0.1-0.4,0.2-0.5,0.2c-1.2-0.6-2.2,0.2-3.2,0.7
	c-0.7,0.3-1.3,0-2-0.2c-0.3-0.1-0.7-0.3-0.9,0.1c-0.2,0.3,0.1,0.6,0.4,0.7c0.8,0.4,0.3,1.1,0.2,1.6c-0.1,0.4-0.5-0.1-0.8-0.2
	c-0.5-0.2-1.1-0.2-1.7,0.1c-0.2,0.1-0.1,0.3-0.1,0.5c0.4,0.7,1,0.4,1.6,0.3c1.4-0.1,2.9-0.3,4.1,0.8c0.2,0.2,0.5,0.3,0.6,0.6
	c0.3,0.6,0.7,0.8,1.3,0.3c0.5-0.3,1-0.7,1.2,0.3c0.1,0.4,0.7,0.3,0.8,0.7c-1.2,0.1-2.1,0.8-3.2,1.4c-1.2,0.6-2.7,0.7-3.9,1.6
	c-0.4,0.3-1,0.2-1.1-0.4c-0.2-0.6,0.2-0.9,0.8-0.9c0.5,0,0.4-0.6,0.6-0.8c-0.3-0.2-0.5-0.5-0.9-0.4c-1.3,0.4-2.4-0.3-3.3-0.9
	c-0.6-0.4-0.4-1.1,0.6-1.8c-0.4-0.3-0.9-0.4-1-1c-0.1-0.4-0.6-0.5-0.9-0.3c-0.4,0.2-0.9-0.2-1.1,0.4c-0.1,0.3,0.3,0.7-0.3,0.8
	c-0.3,0-0.5-0.1-0.6-0.3c-0.2-0.3-0.4-0.7-0.1-1c0.6-0.5,0.5-1.1,0.2-1.8c0.8,0.6,1.4,0.7,2.3,0.2c0.8-0.4,1.9-0.4,2.9-0.3
	c-0.9-0.6-1.6-1.3-2.9-1.1c-0.8,0.2-1.7,0-2.5-0.5c-0.4-0.2-0.4-0.4-0.1-0.6c0.2-0.2,0.7-0.1,0.5-0.6c-0.2-0.4-0.6-0.6-1-0.5
	c-0.5,0.1-1,0.4-1.4-0.1c-0.1-0.1-0.3-0.1-0.3,0.1c-0.1,0.3-0.2,0.7-0.6,0.5c-0.4-0.2-0.2-0.5,0.1-0.6c-0.1-0.1-0.1-0.2-0.2-0.2
	c-0.5-0.5-0.1-0.6,0.3-0.7c0.4-0.1,0.8-0.2,1.1-0.5c0.1-0.1,0.4-0.5,0.2-0.5c-1-0.1-0.8-1.3-1.6-1.5c-0.6-0.2-1.1-0.6-1.6,0.2
	c-0.4,0.6-1.1,0.3-1.7,0.3c-0.3,0-0.4-0.3-0.4-0.6c-0.1-0.3,0.3-0.3,0.4-0.4c0.5-0.5,1.2-0.2,1.7-0.5c-0.9-0.2-1.7-0.8-2.7-0.5
	c-0.2,0-0.4,0.1-0.4,0.3c0.5,1.4-0.8,1.2-1.3,1.1c-1.6-0.2-2.8,0.4-3.8,1.6c-0.1-1.5-0.7-2.5-2.2-2.6c-0.6-0.1-0.9-0.7-1.6-0.6
	c-0.2,0-0.4-0.2-0.3-0.5c0.1-0.3,0.2-0.5,0.6-0.7c0.3-0.1,1.1,0.4,0.9-0.5c-0.2-0.8-0.7-1.2-1.5-1c-0.3,0.1-0.7,0.2-0.9,0.4
	c-0.7,0.7-1.4,0.2-2.1,0.3c-0.3,0-0.4-0.3-0.4-0.5c-0.1-1.2-1-1.4-1.8-1.8c-1.1-0.6-2.3-0.6-3.5-0.9c-2.2-0.5-4-1.9-6-2.8
	c-0.1,0-0.1-0.1-0.2-0.1c-0.7-1.8-2.5-2.6-3.6-3.9c-0.7-0.8-1.6-1.2-2.2-2c-0.3-0.4-0.7-0.7-1-1c-0.3-0.3-0.5-0.7-0.8-1.2
	c0.5,0,0.8,0.4,1.1,0.5c0.4-0.2-0.2-0.6,0.1-0.9c0.4,0,1,0.8,1.4-0.1c0,0,0.1,0,0.2,0.1c0.1,0.1,0.1,0.2,0,0.4
	c-0.7,0.5-0.2,0.9,0.2,1c1.3,0.5,1.9,1.7,2.9,2.6c-0.2,0.3-0.7,0.1-0.8,0.4c-0.1,0.2,0.1,0.4,0.3,0.3c0.4-0.1,0.7,0.6,1.2,0.1
	c0.4-0.5,0.7-0.9,0.9,0.1c1-0.2,0.9,1,1.5,1.2c0.3,0.1,0.6,0,0.9-0.4c-0.8-0.6-0.9-1.6-1.7-2.2c-0.5-0.3-0.3-0.9-0.1-1.4
	c0.3-0.8,0.1-1.3-0.7-1.8c-0.7-0.5-1.5-0.9-2-1.8c-0.5-0.9-1.6-1.2-2.2-2c-0.1-0.2-0.5,0-0.7,0.2c-0.9,0.7-1.7,0.6-2.3-0.5
	c-0.4-0.6-1-1-1.1-1.8c0-0.5,0-1,0.4-1.4c0.4-0.4,0.5-0.7,0.2-1.1c-0.3-0.5-0.8-0.3-1.2-0.2c-0.4,0.1-0.8,0.7-1,0.2
	c-0.4-0.6-1.2-0.6-1.4-1.4c-0.3-0.9-1-1.7-1.2-2.6c-0.1-0.2-0.4-0.7,0-0.7c0.7,0.1,0.2-1.6,1.2-0.7c0.1,0.1,0.3,0.1,0.4,0
	c0.2-0.1,0.2-0.4,0.1-0.6c-0.4-0.9-0.5-2-2-2c-0.8,0-1.3-1.2-1.6-2.2c-0.2-0.8-0.2-1.6,0.4-2.2c0.1-0.1,0.2-0.3,0.3-0.5
	c0.2-1.1,0.5-1.8,1.5-0.4c0.2,0.3,0.6,0.4,1,0.3c1.1-0.2,1.3,0.1,1.1,1.1c0,0.2-0.2,0.4,0,0.7c0.9-0.4,0.6-2,1.9-2.1
	c0-0.1-0.9-2.4-0.9-2.4c0-0.7-0.2-1.4-0.6-2c-0.2-0.3-0.4-0.7-0.1-1.3c0.4,1.1,1.3,1.9,1.8,2.8c0.7,1.1,0.9,2.5,1.8,3.5
	c0.1,0.1,0,0.4,0,0.5c0,0.3-0.2,0.6,0.2,0.8c0.4,0.1,0.7-0.2,1-0.4c0.3-0.2,0.2-0.5,0-0.8c-0.6-0.9,0-1.6,0.7-1.9
	c0.7-0.4,0.4-0.8,0.3-1.1c-0.9-1.7-1.6-3.5-1.4-5.5c0-0.3-0.1-0.7-0.3-0.9c-1.5-1.1-0.8-2.4-0.3-3.6c0.6-1.3,0.4-2.4-0.2-3.6
	c-0.2-0.3-0.5-0.7-0.2-1c0.3-0.4,0.6,0,0.9,0.2c0.2,0.1,0.3,0.2,0.5,0.3c0.4,0.2,0.9,0.7,1.2,0.1c0.3-0.5-0.2-1-0.5-1.3
	c-0.5-0.5-0.7-0.7-0.2-1.3c0.2-0.2,0.3-0.5,0.2-0.7c-0.4-1,0.7-1.8,0.4-2.8c-0.1-0.4,0.5-0.6,0.9-0.8c0.9-0.5,2-0.7,1.7-2.1
	c0-0.1,0.1-0.3,0.2-0.4c1.2-0.6,0.8-1.2,0.4-2.2c-0.3-0.9-0.6-1.7-1.2-2.4c-0.1-0.1-0.1-0.4-0.1-0.6c0.1-0.3,2.1-1.5,2.4-1.5
	c1.3,0,2.4-1.2,2.3-2.5c-0.1-0.7,0-1.3,0.7-1.8c0.4-0.2,0.6-0.6,0.1-1.1c-0.3-0.3-0.5-0.8-0.5-1.3c0.6,0,0.5,0.4,0.6,0.7
	c0.2,0.3,0.4,0.5,0.9,0.5c1.7-0.1,3,0.6,4.1,1.8c0.2,0.2,0.2,0.6,0.6,0.5c0.3-0.1,0.1-0.4,0.1-0.7c0-0.3-0.1-0.6,0.2-0.7
	c0.3-0.1,0.5,0.1,0.7,0.3c0.3,0.4,0.8,0.6,1.3,0.7c0.4,0.1,1,0.4,0.9-0.6c0-0.4,0.5-0.7,0.9-0.7c0.8-0.1,1.1-0.6,1.2-1.3
	c0.1-0.4,0.1-0.8,0.2-1.2c0.4-0.9,0.1-1.3-0.7-1.7c-1.4-0.7-1.4-0.8-2.6,0.4c-0.1-1-0.2-2-0.3-3c0-0.3,0.1-0.7-0.2-0.9
	c-0.5-0.3-0.3-0.7,0-1c0.1-0.2,0.3-0.5,0.6-0.2c0.3,0.4,1.1,0.1,1.1,0.8c0,0.1-0.1,0.3,0,0.4c0.3,1,0,2.3,1.6,2.5
	c0.3,0,0.6,0.5,1,0.7c1.2,0.8,1.2,0.8,2.1-0.4c0.2-0.3,0.3-0.6,0.6-0.9c0.2-0.2,0.4-0.5,0.7-0.4c0.3,0.1,0.2,0.4,0.1,0.7
	c-0.1,0.5,0.4,0.5,0.6,0.6c0.4,0.2,0.4-0.2,0.4-0.4c0-0.6,0.3-0.6,0.7-0.4c1.3,0.5,2.6-0.4,2.9-1.1c0.6-1.4,2.2-1.5,2.7-2.7
	c0.5-1.2,1.7-2,2-3.4c0-0.2,0.2-0.4,0.3-0.4c1.7-0.1,0.9-1.4,1.1-2.2c0.2-0.7,0.2-1.5,1.3-1.4c0.4,0,0.6-0.3,0.8-0.6
	c0.2-0.3,0.6-0.2,0.8-0.1c0.4,0.3,0,0.4-0.2,0.5c-0.2,0.1-0.2,0.3,0,0.4c0.6,0.4,0.5,0.6-0.2,0.8c-0.4,0.1-0.3,0.4-0.2,0.7
	c0.1,0.3,0.2,0.7,0.6,0.7c0.5,0,0.8,0.2,1.2,0.4c0.7,0.5,1.5,0.3,2-0.3c0.5-0.6,0.5-1.1,0-1.7c-0.5-0.6-0.2-1.4-0.4-2.1
	c-0.1-0.5-0.2-0.7-0.7-0.4c-0.4,0.2-0.9,0.4-1.1-0.2c-0.2-0.5,0.2-0.8,0.6-1c0.5-0.3,1.1-0.3,1.5-0.9c0.3-0.5,1-0.8,0.1-1.4
	c-0.1-0.1,0-0.5,0-0.5c0.8-0.2,1.2-0.9,1.9-1.2c0.2-0.1,0.7-0.4,0.8,0.1c0.1,0.5,0.6,1,0.1,1.4c-0.4,0.4-0.7,0.7-0.8,1.2
	c-0.1,0.3-0.4,0.5-0.7,0.5c-0.5,0.1-1,0.1-0.8,0.8c0.2,0.5,0.2,1.2,1.1,1c0.3-0.1,0.9-0.1,0.9,0.3c0.1,0.5-0.5,0.4-0.8,0.5
	c-0.6,0.1-0.4,0.5-0.4,0.8c0,0.4-0.3,1,0.1,1.3c0.4,0.3,0.7,0,0.9-0.3c0.5-0.9,1.5-1.6,1.8-2.7c0.1-0.4,0.5-0.8,0.9-1.1
	c0.3-0.2,0.5-0.3,0.7,0.1c0.4,0.8,1.3,1.1,2,0.6c0.7-0.5,1.5-0.7,2.3-0.6c0.5,0.1,0.9-0.3,1.2-0.6c0.5-0.3,1.1-0.8,1.5,0.3
	c0.3,0.6,1,0.6,1.6,0.3c0.5-0.2,0.9-0.3,1.4,0.2c0.6,0.6,1.3-0.3,2-0.3c0.1,0,0.3-0.3,0.3-0.2c1.9,0.5,2.6-1.5,4.1-1.9
	c0.4-0.1,0.7-0.2,0.7,0.3c0,0.6,0.3,0.6,0.8,0.5c2-0.3,4-0.8,6-0.9c1.5-0.1,3.1,0.1,4.4,1c0.9,0.7,1.8,0.8,2.6,0.5
	c1-0.4,2.1-0.5,3.1-0.5c1.5,0,2.9-0.3,4.4-0.2c0.3,0,0.6-0.1,0.5,0.4c-0.1,0.7,0.4,0.8,0.9,1c1.1,0.2,2.4-0.5,2.8-1.6
	c0.1-0.3,0.3-0.7,0.6-0.5c0.9,0.5,2.1,0.3,2.6,1.4c0.3,0.6,0.7,0.3,1,0.1c0.6-0.4,1.1-0.7,1.8-0.1c0.6,0.5,1.3,0.3,1.7-0.4
	c0.5-0.7,1-0.7,1.6-0.1c0.3,0.2,0.6,0.5,0.9,0.6c1.4,0.5,1.7,1.7,2,2.9c0.1,0.6,0.3,1,0.8,1.3c0.6,0.4,0.6,1.1,1.1,1.6
	c-1,0.2-1.8,0.1-2.4-0.4c-1.2-0.9-2.7-0.8-3.9-1.4c-0.3-0.1-0.6,0.1-0.8,0.1c-0.8,0.3-1.7,0.2-2.6,0c-1.5-0.3-3-0.2-4.4,0
	c-1,0.1-1.9,0.6-3,0.5c-0.5-0.1-0.8,0.4-0.7,0.9c0.1,0.4,0.4,0.7,0.9,0.3c0.2-0.1,0.4-0.2,0.5,0c0.4,1,1.5,0.7,2.1,1.3
	c0.8,0.8,1.8,1,2.8,0.5c0.7-0.4,1.4-0.1,2,0.2c0.9,0.5,1.9,0.8,2.8,1c0.7,0.2,1.3,0.2,2,0.9c0.5,0.5,1.5,0.4,2.3,0.6
	c1.9,0.4,3.3,1.2,4.4,3c0.7,1.2,1.9,2.1,3.4,2.5c1.7,0.4,1.9,0.8,1.8,2.5c-0.1,1.5,0.9,2.8,2.3,3.2c0.1,0,0.2,0,0.2,0.1
	c0.6,1.4,1.8,0.8,2.8,1c1.2,0.2,1.3,0.4,0.7,1.4c-0.3,0.5-0.2,0.8,0.1,1.2c0.2,0.3,0.4,0.5,0.4,0.9c0.1,0.9,0.6,1.2,1.3,0.9
	c0.7-0.3,2.5-3,2.4-3.8c1,0.3,0.9,1.4,1.6,2c0.3,0.2,0,0.5-0.2,0.7c-0.3,0.3-0.6,0.8-1.2,0.6c-1.3-0.3-1.8,0.4-1.6,1.7
	c0.2,1.5,1.1,2.2,2.5,2.6c0.7,0.2,1.3,1.1,2.2,0.7c0.3,1.1,1.2,0.5,1.8,0.7c0.4,0.2,0.8,0.2,1.1-0.3c0.3,0.5,0,0.8-0.2,1
	c-0.4,0.4-0.8,0.7-0.1,1.2c0.4,0.3,0.7,1.3,1.4,0.2c0-0.1,0.2-0.1,0.3-0.1c0.7,0.9,1.2,0.2,1.7-0.3c0.1-0.1,0.4-0.1,0.6,0.1
	c0.4,0.4,0.3,1.9-0.2,2.5c-0.3-0.6,0.3-1.2-0.2-1.8c-0.3,0,0,0.9-0.6,0.4c-0.2-0.2-0.3,0-0.4,0.2c-0.2,0.5,0.2,1.1-0.6,1.4
	c-0.2,0.1,0.2,0.4,0.4,0.6c0.3,0.3,0.7,0.8,0.1,1c-0.5,0.2-1,1.1-1.6,0.2c-0.8-1.4-2.1-2.1-3.4-2.8c-0.2-0.1-0.4-0.2-0.2-0.5
	c0.5-0.7,0-0.9-0.6-1.1c-0.8-0.4-1.5-0.9-2.1-1.5c-1.4-1.3-2.9-2.3-5-1.7c-0.8,0.2-1.6,0.1-2.2-0.5c-1.5-1.2-3.1-1.8-5-1.3
	c-0.8,0.2-1.6-0.1-2.3-0.3c-0.5-0.2-1.1-0.5-1.6,0.2c-0.3,0.4-0.7,0-0.9-0.2c-0.6-0.5-1-0.5-1.4,0.2c1.1,0.6,2.2,1.3,3.3,1.9
	c0.6,0.4,1,0.7,0,1.2c-0.5,0.2-0.5,0.7,0,0.7c1.7,0,2.6,1.4,4,2c0.7,0.3,1.3,0.5,2.1,0.4c2.1-0.1,2.7,0.3,3.3,2.3
	c0.1,0.4,0.3,0.7,0.7,0.8c0.6,0.2,1.2,0.4,1.7,0.7c0.7,0.4,1.5,0.9,1,2c-0.3,0.7,0.2,1.4,1,1.6c0.6,0.2,0.9,0.6,1.2,1.1
	c1.1,2,2.8,3.6,4,5.5c0.9,1.5,2,2.9,2.8,4.4c0.3,0.6,0.5,1.4,1,1.9c1.3,1.2,0.7,2.7,0.6,4.1c-0.1,0.9,0.2,1.6,0.8,2.3
	c1.6,1.8,2.6,3.9,2.8,6.1c0.1,1.6-0.1,3.1,0.9,4.6c0.6,0.9-0.6-0.1-0.9,0.3c-0.1,0.5,0.3,0.8,0.5,1.2c0.7,1.4,1.3,2.7,1,4.3
	c-0.2,1.3-0.9,0.7-1.4,0.5c-0.3-0.1-0.6-0.4-1-0.4c-0.7,0.1-1.2,0.2-1.3-0.8c0-0.5-0.6-0.6-1-0.3c-0.6,0.4-0.9,1-0.9,1.9
	c0.2,2.3,0.7,4.5,0.7,6.8c0,0.4,0.1,0.9-0.2,1.3c-0.2,0.3-0.3,0.7-0.7,0.8c-0.5,0-0.4-0.5-0.5-0.8c-0.1-0.2-0.2-0.5-0.4-0.5
	c-0.3,0-0.5,0.3-0.4,0.5c0,0.6,0.1,1.2,0.3,1.7c0.3,0.8,0.1,1.2-0.7,1.3c-0.4,0.1-0.7,0.4-1.1,0.6c-0.2-0.3,0-0.4,0.1-0.5
	c0.2-0.2,0.9-0.3,0.5-0.7c-0.3-0.3-0.8,0-1.1,0.2c-0.2,0.1-0.5,0.5-0.4,0.7c0.1,0.6,0.4,1.2-0.7,0.9c-0.3-0.1-0.3,0.3-0.3,0.6
	c0.1,1.1-0.1,2.2-0.4,3.3c-0.1,0.3-0.3,0.4-0.6,0.4c-0.3,0-0.7,0.1-0.8-0.4c0-0.2,0-0.4-0.1-0.6c-0.5-0.1-0.6,0.3-0.8,0.5
	c-0.3,0.5-0.8,0.8-1.3,0.8c-0.7,0-1.1,0.4-1.3,1c-0.1,0.5-0.4,0.7-1,0.4c-1.2-0.6-1.2-0.6-2.5-0.1c0.2-0.7-0.4-1.6,0.7-1.9
	c0.1,0,0.2-0.2,0.1-0.4c-0.8-1.7-0.8-3.6-1.4-5.3c-0.2-0.6-0.3-1.1-1-1.2c-0.3,0-0.5-0.4-0.3-0.5c0.8-0.3,0.7-1.5,1.7-1.6
	c0.8-0.1,1.1-0.9,1.6-1.5c0.6-0.7,1.1-1.4,0-2.1c0,0-0.1-0.1-0.1-0.2c-0.2-0.7,0-1.5-1.2-1.8c-0.6-0.2-1-1.1-1.5-1.7
	c-0.3-0.3-1.9-0.5-2.1-0.2c-0.4,0.6-0.6,1.3-0.2,2c0.1,0.1,0.2,0.2,0.3,0.3c0.4,0.5,1.2,1.1,0.8,1.7c-0.4,0.8-1.1,1.5-2.2,1.6
	c-0.4,0-0.5,0.3-0.6,0.5c-1,0.8-0.7,2.1-1.3,3c-0.1,0.2-0.4,0.5-0.5,0.4c-0.8-1-1.5,0.6-2.3,0.1c-0.2-0.1-0.4,0.3-0.5,0.5
	c-0.3,0.4-0.7,0.6-1.1,0.1c-0.3-0.3,0-0.7,0.3-0.9c0.1-0.1,0.2-0.2,0.3-0.3c0.6-0.6,1.2-1.1,0.1-1.9c-0.6-0.4-0.4-1.3-0.7-1.9
	c-0.2-0.4,0.4-0.4,0.8-0.6c-0.7-0.4-0.6-1.2-1-2c-0.1,0.5-0.2,0.8-0.2,1.1c0.1,0.6-0.4,0.5-0.7,0.6c-0.4,0-0.4-0.2-0.4-0.6
	c-0.1-1.2-0.4-2.3-0.1-3.5c0-0.2-0.1-0.3-0.2-0.3c-0.2-0.1-0.5,0-0.6,0.1c-0.2,0.3-0.4,0.7-0.1,1.1c0.4,0.5,0.6,1-0.2,1.4
	c-0.1,0.1-0.1,0.5-0.2,0.7c-0.1,0.7-0.3,1.3-0.7,1.8c-0.2,0.2-0.3,0.7-0.7,0.4c-0.4-0.3,0-0.5,0.2-0.7c0.2-0.2,0.2-0.5,0.1-0.7
	c-0.1-0.2,0.1-0.6-0.3-0.6c-0.4,0-0.3,0.3-0.3,0.6c-0.1,0.3-0.2,0.6-0.5,0.8c-0.5,0.2-0.6,0.6-0.6,1.1c-0.1,1-0.8,1.8-0.1,2.9
	c0.2,0.3-0.4,1,0.3,1.5c0.2,0.2-0.2,0.5-0.5,0.6c-0.7,0.2-1.2,0.6-1.1,1.5c0,0.2-0.1,0.4-0.3,0.4c-0.3,0.1-0.2-0.2-0.3-0.3
	c-0.3-0.9-1.2-0.5-1.8-0.9c-0.3-0.2-0.5,0.5-0.6,0.9c-0.2,0.6-0.5,0.8-1.1,0.7c-0.7-0.1-1.5-0.3-2.1,0.5c-0.3,0.4-1.1,0.3-1.6,0
	c-0.4-0.2-0.9-0.3-0.9,0.4c0,0,0,0.1,0,0.1c-1.2-0.7-0.7,0.7-1.2,1c-0.6,0.4-1.1,0.9-1.6,1.4c-0.2,0.1-0.3,0.2-0.5,0.3
	c-0.5-0.2,0.1-0.8-0.3-0.9c-0.4-0.1-0.2-0.8-0.6-0.5c-0.3,0.2-0.4,0.5-0.2,0.8c0.3,0.8,0.6,1.5,0.9,2.3c0.2,0.5,0.6,0.9,0.3,1.5
	c-0.1,0.3,0.1,0.5,0.4,0.3c0.5-0.4,1-0.3,1.5,0c0.1,0.1,0.3,0.1,0.4,0.1c0.3-0.3,0.6-0.6,1-0.2c0.4,0.4,0,0.9,0,1.3
	c0,0.4-0.4,0.8-0.7,1.1c-0.3,0.3-0.7,0.3-0.7-0.3c-0.1-0.8-0.4-1.1-1.2-0.6c-0.5,0.4-1.2,0.3-1.6-0.1c-0.6-0.6-1-0.5-1.5,0
	C498.2,530,498,529.9,497.9,530L497.9,530z"/>
<path d="M511.3,586c0-0.8,0.3-1.5,1-1.3c1,0.3,0.1,1.1,0.1,1.8c0.7-0.3,1.1-0.9,0.9-1.4c-0.4-1.3,0.8-2.2,0.9-3.4
	c0-0.3,0.3-0.2,0.5-0.1c0.3,0.2,0.6,0.3,0.8,0.5c0.2,0.2,0.5,0.4,0.8,0.1c0.3-0.3,0.2-0.6,0-0.9c-0.2-0.2-0.5-0.5-0.2-0.8
	c0.2-0.3,0.4-0.5,0.9-0.2c0.2,0.2,0.3-0.3,0.5-0.5c0.3-0.2,0.5-0.3,0.8-0.2c0.3,0.1,0.2,0.4,0.2,0.7c0,0.4-0.2,0.7,0.6,0.7
	c0.8,0,1.1,1,1.5,1.7c0.3,0.5,0.2,1-0.3,1.5c-1,1-2.2,1.6-3.5,2.1c-0.3,0.1-0.7,0.2-0.4,0.7c0.7,1.3,0.4,2-1.1,2.3
	c-0.2-0.2-0.1-0.4,0.1-0.6c0.1-0.1,0.2-0.3,0-0.4c-0.1-0.1-0.3,0-0.4,0.1c-0.2,0.3-0.3,0.6-0.5,0.9c-0.5,1.2-1.1,2-2.4,2.4
	c-0.9,0.3-1.1,1.6-0.5,2.2c0.5,0.4,1,0.8,1.6,0.1c0.4-0.5,0.6-0.3,0.7,0.1c0.2,0.7,1,1.4,0.2,2.2c-0.3,0.3-0.5,0.5-0.9,0.5
	c-0.5,0-0.1-0.5-0.2-0.7c-0.4-0.6-1-0.4-1.2,0c-0.7,1.2-1.7,0-2.5,0.3c-0.2,0.1-0.3-0.3-0.4-0.6c-0.2-0.9-0.7-1.2-1.5-0.8
	c-0.6,0.3-1.2,0.2-1.4,1.3c-0.1,1.1-2,1.3-2.9,0.5c-0.3-0.3-0.6-0.6-1-0.5c-0.5,0.2-0.5,0.7-0.5,1.1c0,0.5-0.1,1-0.2,1.5
	c0,0.3-0.1,0.6-0.5,0.6c-1.2-0.1-2.2,0.6-3.2,0.9c-1.8,0.6-3.8,0.8-5.1,2.3c-0.3,0.3-0.8,0.2-1.1,0.1c-1-0.1-1.9-0.1-2.6,0.7
	c-0.2,0.2-0.7,0.6-0.9,0.1c-0.3-1-0.8-0.5-1.3-0.3c-1.2,0.5-1.6,0.4-2.3-0.7c-0.7-1-1.3-1.2-2.3-0.6c-1,0.6-2.1,0.3-3.2,0.2
	c-0.7-0.1-1.5-0.3-2.2-0.5c-0.8-0.3-1.5-0.2-2.3,0.3c-0.4,0.3-0.9,0.6-1.1-0.4c-0.3,0.8-0.8,1.3-1.1,2.1c-0.2,0.5-1,0.8-1.7,0.4
	c-1.4-0.8-2.3-0.3-2.6,1.3c-0.1,0.5-0.3,1.1-1.2,1.2c-1.2,0.1-2.3,0-3.3-0.6c-0.4,0.5,0.4,0.4,0.2,0.8c-0.3,0.2-0.6,0.1-0.9-0.1
	c-0.7-0.7-1.2-0.4-1.5,0.6c-0.4-0.9-0.8-0.9-1.4-0.5c-0.6,0.4-1.2,0.2-1.8-0.2c-1.1-0.7-1.6-0.5-2.3,0.5c-0.7,1.1-1.9,1.5-2.9,1.9
	c-0.8,0.4-1.5-0.6-2-1.1c-0.8-0.8-1.8-1.1-2.7-1.6c-0.7-0.4-1-0.8-0.1-1.2c0.5-0.3,0.6-0.9,1.2-1.1c0.3-0.1,0.3-0.4,0.2-0.5
	c-0.3-0.3-0.6-0.8-1.1-0.7c-1.3,0.1-1.8-0.6-2.1-1.8c0-0.1,0-0.2-0.1-0.2c-1.3-0.2-1.3-1.5-1.8-2.3c-0.1-0.2-0.4-0.3-0.2-0.6
	c0.2-0.4,0.4,0,0.6,0.1c0.5,0.2,0.9,0.3,0.7,1.1c-0.2,0.8,0.6,0.9,1.1,0.9c0.4,0.1,0.6,0,0.8,0.5c0.1,0.5,0.6,1.1,1.4,0.5
	c0.3-0.2,0.8-0.2,1,0.1c0.3,0.3-0.1,0.4-0.3,0.5c-0.2,0.2,0,0.3,0.1,0.4c0.4,0.2,0.7,1,1.3,0.7c0.6-0.3,1.2-0.3,1.8-0.1
	c0.4,0.1,0.9,0.2,1.3,0c0.3-0.1,0.7-0.3,0.9-0.1c1.3,0.9,2.3,0.1,3.3-0.5c0.5-0.3,1.3-0.4,1.5-0.3c1.1,0.3,1.9-0.4,2.8-0.6
	c0.6-0.1,1.1-0.4,1.7-0.1c0.4,0.2,0.9-0.1,1.1-0.5c0.9-1.5,2.3-1.1,3.6-1c1.1,0.1,2.8-0.3,3.3-1.2c0.3-0.4,0.7-0.3,0.8-0.1
	c0.5,0.6,0.8,0.2,1.3,0c1-0.5,2.1-0.9,3.3-0.8c0.3,0,0.5-0.2,0.7-0.4c0.5-0.6,1.2-1,2-0.7c0.8,0.3,1.6,0,2.5-0.1
	c0.3,0,0.5-0.3,0.5-0.7c0-0.9,0.6-0.6,1-0.4c0.2,0.1,0.4,0.3,0.6,0.5c0.8,1.3,1.7,0.8,2.5,0c0.4-0.3,0.4-0.6,0.1-1
	c-0.5-0.6-0.1-1,0.5-1.2c1-0.5,2-1.2,3.2-1c0.3,0.1,0.5-0.2,0.7-0.5c0.6-1,1.6-1.1,2.7-1.1c0.9,0,1.7,0.1,2.5,0.4
	c0.4,0.1,0.6-0.1,0.9-0.4c0.7-0.8,1.4-1.1,2.6-0.6c1,0.4,1.8,1,2.6,1.7c0.5,0.4,0.7,0.3,1-0.2c0.5-0.7,0.6-1.5,1.2-2.1
	c0.4-0.4,0-0.6-0.4-0.7c-0.4-0.1-0.9-0.1-0.8-0.6c0-0.5,0.6-0.3,0.8-0.5c1.5-1,2,0.6,2.6,1.2c0.9,0.9,1.6,0.3,2.3,0.1
	c0.5-0.1,0.8-0.8,1.3-1.1c0.3-0.2,0.4-0.5-0.2-0.6c-0.3,0-0.5-0.2-0.8-0.4c-0.6-0.4-0.9-0.4-0.8,0.4c0,0.3-0.1,0.6-0.4,0.7
	c-0.4,0-0.5-0.3-0.7-0.6c-0.5-1-0.2-1.8,0.9-2.2c0.1,0,0.2,0,0.2-0.1C510,584.5,510.6,585.3,511.3,586"/>
<path d="M522.3,551.4c0.3-0.1,0.7-0.2,0.7-0.6c0-0.3-0.3-0.6-0.6-0.5c-0.4,0-0.5,0.4-0.6,0.8C521.7,551.4,522.1,551.4,522.3,551.4
	 M520.4,569.7c-0.3-0.5-0.5-1.4-1.1-0.2c-0.1,0.2-0.6,0.1-0.9,0.1c-0.9-0.2-1.6,0.4-2.4,0.5c-0.4,0-0.3,0.5-0.3,0.7
	c-0.1,0.6-0.2,1.3-1.1,1.3c-0.3,0-0.5,0.3-0.7,0.6c-0.2,0.4-0.5,1-1.1,0.4c-0.2-0.2-0.3,0-0.4,0.1c-0.5,0.6-1.1,0.8-1.8,0.4
	c-0.1,0.3,0.5,0.6,0.1,0.8c-0.3,0.2-0.6,0.3-0.9,0.2c-0.5-0.2-1.1-0.3-1.2-0.8c-0.1-0.5,0.5-0.8,1-1c0.6-0.3,1.4-0.1,1.6-1.2
	c0.1-0.6,0.9-1.4,1.3-2.1c0.2-0.4,0.6-0.8,0.3-1.2c-0.3-0.4-0.7,0-1,0.2c-0.5,0.3-1.1,0.1-1.4-0.2c-0.5-0.4-0.3-0.9,0.3-0.9
	c0.7,0,0.7-0.3,0.6-0.8c0-0.2,0-0.4,0.2-0.5c0.7-0.7,0.8-1.2-0.2-1.7c-0.5-0.3-0.1-0.8,0.1-1.1c1.3-2,2.8-3.8,3.6-6.1
	c0.2-0.6,0.8-1,1.4-1.3c1.4-0.7,2.6-1.6,3.8-2.5c0.6-0.4,1.3-0.8,1.9,0.1c0.1,0.2,0.3,0.3,0.4,0.2c0.2-0.2,0.2-0.5,0-0.6
	c-0.4-0.2-0.5-0.8-1.1-0.8c-0.3,0-0.8,0.3-0.8-0.3c0-0.5-0.1-1,0.5-1.2c0.5-0.1,0.6-0.5,0.8-1c0.1-0.4,0.1-0.8,0.7-0.8
	c0.5,0.1,0.5-0.4,0.6-0.7c0.5-0.9,0.6-2.2,2.1-2.3c0.3,0,0.4-0.3,0.3-0.6c-0.1-0.3,0-0.6-0.1-0.8c-0.9-1.5,0.1-2.6,0.7-3.8
	c0.3-0.6,0.6-1.1,0.1-1.8c-0.4-0.4-0.4-0.9,0.3-1.1c1-0.2,1.1-1,1.1-1.7c0-1.1,0-2.1-1.4-2.4c-0.7-0.1-1.3-2.1-0.9-2.6
	c0.2-0.3,0.6-0.1,0.9-0.1c0.7,0,1.3,0.2,1.6-0.9c0.3,0.8,0.6,1.2,1,0.2c0.5-1.1,1.5-1.4,2.5-1.6c0.6-0.1,1,0.1,1-0.8
	c0-0.5,0.6-0.6,0.9-0.8c0.2-0.1,0.3,0.2,0.5,0.4c0.1,0.1,0.2,0.4,0.1,0.5c-1,0.3-0.4,1.3-0.8,1.9c-0.1,0.1-0.2,0.3-0.1,0.4
	c0.9,1.4-0.5,3.3,0.9,4.6c0.3,0.3-0.1,0.5-0.3,0.7c-0.4,0.4-0.3,0.6,0.3,0.6c1.2,0.1,1.5,0.5,1.5,1.7c0,0.6,0.1,1.2,0,1.7
	c-0.1,0.8,0.6,0.9,1,1.3c0.4,0.5-0.9,0.6-0.4,1.3c0.3,0.4,0.2,0.9,0.2,1.4c0,0.3,0,0.8-0.3,0.8c-0.4,0-0.9,0.1-1.2-0.4
	c-0.7-1.2-2.4-1.6-3.6-0.9c-0.6,0.4-1,1.2-0.6,1.8c1.4,1.5,0.2,2.6-0.5,3.7c-0.4,0.7-0.6,1.5-1,2.1c-0.5,0.9-0.8,2-1.6,2.7
	c-0.5,0.4-0.7,1-1,1.5c-0.4,0.5,0.3,1.2,0.5,1.7c0.2,0.4,0.6,0.9,1.2,0.7c0.5-0.2,0.9,0,0.7,0.5c-0.4,1,0.1,1.7,0.4,2.5
	c0.6,1.3,0.5,2.1-0.3,2.7c-0.5,0.4-0.7,0.3-0.8-0.3c-0.1-0.3,0.3-0.9-0.4-1c-0.6,0-1.2,0.3-1.4,0.8c-0.3,0.7-0.5,0.9-1.3,0.8
	c-0.7-0.1-1.2,0.6-1.8,0.9c-0.5,0.3-1.1,0.6-1.6,0.9c-1.1,0.7-1.1,0.7-0.1,1.4c0.5,0.4,0.9,0.7,0.3,1.4
	C520.8,568.4,520.9,569.1,520.4,569.7"/>
<path d="M488.1,414.6c0.3-0.1,0.4-0.2,0.5-0.5c0.2-0.6,0.9-0.8,1.1-1.4c0-0.1,0.5,0,0.2-0.4c-0.2-0.2-0.4-0.1-0.6,0
	c-0.6,0.5-0.9,1.2-1.6,1.6c-0.2,0.1-0.2,0.2-0.1,0.3C487.8,414.5,488,414.6,488.1,414.6 M505.3,416.4c-0.1-0.1-0.2-0.1-0.1-0.1
	c0.6-1.6-0.7-1.5-1.5-1.8c-0.5-0.1-1-0.2-1.3-0.7c-0.1-0.2-0.4-0.3-0.6-0.1c-0.3,0.6-0.8,1.2-1,1.8c-0.2,0.6-0.1,1-0.9,0.9
	c-0.5,0-0.7,0.5-1.1,0.8c-0.5,0.4-0.9,0.6-1.2-0.2c-0.1-0.4-0.5-0.8-0.8-1.1c-0.4-0.5-0.7-0.8-1.1,0c-0.1,0.3-0.4,0.4-0.7,0.2
	c-0.6-0.4-1-0.4-1.5,0.3c-0.4,0.6-1.2,1.1-2,0.4c-0.4-0.4-0.9-0.3-1.4-0.3c-0.2,0-0.5,0.1-0.5-0.2c-0.1-0.2,0.1-0.4,0.3-0.5
	c0.3-0.2,0.9-0.4,0.4-0.9c-0.4-0.4-0.8-0.2-1.1,0.2c-0.4,0.5-0.8,0.8-1.3,0c-0.6-0.9-2-0.8-2.7-1.7c-0.3-0.3-0.6,0.3-0.6,0.6
	c0.1,1.3-1.5,1.2-1.7,2.2c0,0-0.1,0-0.2,0c-0.4-0.1-1.1-2-0.8-2.3c0.7-0.7-0.1-1.8,0.7-2.4c-0.8-0.6-0.2-1,0.3-1.3
	c0.5-0.3,1.2-0.7,1.8-0.1c0.1,0.1,0.2,0.1,0.3,0.1c1.4-1.2,2.6,0.2,3.7,0.6c0.6,0.2,1,0.8,1.8,0.6c0.4-0.1,0.7,0.4,0.3,0.8
	c-0.4,0.4-0.2,0.5,0.1,0.8c0.4,0.4,0.4-0.1,0.6-0.2c0.5-0.4,1-0.6,1.7-0.7c1.2-0.2,2.3-0.4,3.4-0.9c0.2-0.1,0.4-0.1,0.6,0.1
	c0.3,0.2,0.1,0.5,0,0.7c-0.3,0.5-0.7,0.9-0.8,1.5c0,0.2-0.1,0.5,0.2,0.6c0.3,0.1,0.3-0.2,0.4-0.4c0.3-0.4,0.4-0.8,0.5-1.3
	c0.2-0.7,0.6-1,1.2-0.3c0.2,0.2,0.5,0.4,0.8,0.6c0.5,0.3,0.8,0.2,1.4,0c1.1-0.4,1.2-1.2,1.8-1.9c0.4-0.6,1-1,1.9-0.6
	c0.8,0.4,0.7,0.9,0.4,1.5c-0.1,0.1-0.1,0.3,0,0.4c0.2,0.2,0.3,0,0.5,0c1.3-0.4,1.5-0.3,1.7,1c0,0.2,0,0.5,0.3,0.6
	c0.3,0.1,0.4-0.3,0.6-0.4c0.5-0.4,1.1-1.2,1.1,0.3c0,0.2,0.2,1.7,1.4,0.8c0.5-0.4,1.3,0.2,1.2,0.8c0,0.5,0.1,0.8,0.5,1.2
	c0.7,0.6,0.6,0.8-0.2,1.3c-0.6,0.4-1.1,0.6-1.8,0.3c-0.1,0-0.3,0-0.4,0.1c-0.8,0.9-1.5,1-2.3,0c-0.2-0.3-0.5-0.4-0.1-0.7
	c0.2-0.2,0.2-0.5,0-0.6c-0.7-0.3-0.5-0.7-0.3-1.2c0.1-0.2,0.2-0.5-0.1-0.6c-0.3-0.1-0.5,0-0.6,0.3
	C505.9,415.6,505.7,416.1,505.3,416.4"/>
<path d="M550.5,429.8c-0.5-0.2-1-0.2-1.6-0.2c-0.2,0-0.5,0.1-0.6,0c-0.8-0.6-1.5-0.5-2.5-0.2c-0.8,0.3-2-0.4-2.8-1
	c-0.7-0.5-0.9-1.3-0.7-2.8c-0.8,0.2-0.6,1.2-1.5,1.2c0.3,0.4,0.8,0.4,0.8,0.9c0,0.2-0.2,0.4-0.4,0.3c-0.4,0-0.9,0.1-1.2-0.3
	c-1.1-1.7-2.8-1.6-4.5-1.6c-0.3,0-0.6,0.1-1,0.1c-0.6,0-0.9-0.1-0.6-0.7c0.2-0.4,0-0.6-0.3-0.9c-1.2-1.2-2.9-1.3-4.1-2.4
	c-0.1-0.1-0.2-0.1-0.3-0.1c-0.8,0.5-1.5,0-2.3,0.1c-0.2,0-0.3,0.3-0.5,0.5c-0.3-0.4-0.4-0.9-1.1-0.9c-0.6,0-0.8-0.7-0.9-1.2
	c-0.1-0.3-0.1-0.9-0.7-0.8c-0.6,0.1-1.5,0-1.7,0.5c-0.2,0.4-0.1,0.4-0.4,0.2c-0.3-0.2-0.4-0.5-0.6-0.6c-0.5-0.4-0.8-1.1-1.7-0.7
	c-0.6,0.3-0.7-0.3-0.7-0.6c0-0.9-0.7-1-1.3-1c-0.5,0-0.8,0.2-0.6,0.8c0.1,0.2,0.3,0.4,0.1,0.6c-0.3,0.6-1.2,0.3-1.6,1
	c-0.4,0.7-1.1,0.6-1.6-0.1c-0.2-0.2-0.5-0.1-0.7-0.1c-0.3,0-0.5-0.4-0.4-0.4c0.9-0.5,0.2-1,0-1.6c-0.1-0.2,0-0.4,0.2-0.4
	c0.9-0.2,1.1-1,1.3-1.7c0.2-0.7,0.9-0.7,1.2-1.1c0.5-0.6,0.8-0.2,1.3-0.1c0.7,0.1,0,0.7,0.5,0.8c0.3-0.1,0.7-0.6,1.1,0
	c0.2,0.4,0.6,0.2,0.8,0c0.2-0.2,0.6-0.4,0.8-0.1c0.4,0.9,1.3,0.9,2.1,1.1c0.4,0.1,0.5,0.3,0.3,0.7c-0.3,0.6,0.1,1,0.4,1.4
	c0.5,0.7,0.9,0.6,1.3,0c0.3-0.4,0.6-0.5,1-0.3c0.3,0.2,0.6,0.1,0.8,0c0.7-0.4,1.4-0.5,2,0.3c0.4,0.6,1.2-0.1,1.7,0.5
	c0,0.3-0.3,0.3-0.4,0.4c-0.2,0.2-0.3,0.6-0.1,0.8c0.2,0.1,0.5,0,0.6-0.3c0.2-0.5,0.4-0.2,0.6,0c0.3,0.4,0.5,0.9,0.7,1.3
	c0.3,0.7,0.7,1.3,1.6,1.2c0.5,0,0.6,0.4,0.9,0.5c0.4,0.2,0.9,0.5,1-0.5c0.2,1.1,1.2,1,1.8,1.3c0.4,0.2,0.8,0.2,0.7,0.8
	c-0.1,0.2,0.2,0.5,0.3,0.8c0.2,0.4,0.5,0.5,0.8,0.3c0.4-0.2,0-0.7,0-0.7c-1-0.6-0.2-1,0.1-1.5c0.3,0.2,0.1,0.9,0.8,0.8
	c0.1,0,0.2,0.1,0.3,0.1c0.9,1.1,1.6,1.4,2.7,0.9c1.4-0.6,1.8-0.6,2.8,0.6c0.3,0.4,0.5,0.5,1,0.5c0.7,0,1.2,0.4,1.4,1.2
	c0.1,0.5,0.2,1.2,1,0.8c0.3-0.1,0.3,0.2,0.5,0.3c0.3,0.3,0.5,0.2,0.7,0c0.7-0.7,1-0.6,1.3,0.4C550.5,429.1,550.7,429.4,550.5,429.8
	L550.5,429.8z"/>
<path d="M485.4,553.4c-1.2,0.3-1.6,1.1-1.5,2.1c-0.7-0.5-0.7-0.5-0.5-1.3c0.1-0.3-0.3-0.4-0.5-0.4c-0.4,0.1-0.8,0-1.1-0.3
	c-0.7-0.6-1.3-1.4-2.1,0c-0.1,0.2-0.5,0.2-0.7,0.1c-0.9-0.4-1.8-0.1-2.7-0.3c-0.5-0.1-1,0.4-1.5,0.5c-1.3,0.4-2.3-0.2-3.4-0.5
	c-0.4-0.1-0.7-0.2-1.1,0c-0.8,0.5-1.7,0.4-2.5,0.2c-2.3-0.6-4.6-1.2-6.8-1.9c-0.2,0-0.4-0.1-0.4-0.3c0-0.2,0.2-0.3,0.4-0.3
	c0.9-0.4,1.6,0.3,2.3,0.6c1,0.5,1.8,0,2.7,0.1c0.6-1.6,2.3-1,3.2-1.7c0.8-0.7,1-0.2,1.5,0c0.5,0.2,0.7-0.2,1-0.4
	c0.5-0.3,0.9-0.5,1.2,0.2c0.3,0.5,0.5,0.4,1,0.2c1.2-0.6,2.4-0.7,3.5,0.1c0.6,0.4,1.2,0.5,1.8-0.1c0.4-0.4,0.8-0.6,1.4-0.5
	c-0.6-0.9-0.6-1.4,0.5-1.6c0.4-0.1,0.7-0.4,1.2-0.7c0.1,0.5,0.1,0.9,0.3,1.3c0.3,0.5,0.5,0.8,1.2,0.6c0.2-0.1,0.5-0.3,0.6,0.2
	c0,0.3-0.2,0.4-0.4,0.4c-0.6,0.2-1.3,0-0.2,0.8c0.5,0.3,1.4,0.9,1.4,1.9c0.7-0.7,1.2-1.2,1.1-2.1c-0.1-0.3,0.1-0.5,0.4-0.5
	c0.4,0.1,0.4,0.3,0.2,0.6c-0.6,1.1-0.8,2.2,0,3.3c0.1,0.2,0.3,0.4,0.1,0.7c-0.2,0.2-0.4,0-0.6-0.1
	C485.9,554.4,485,554.6,485.4,553.4"/>
<path d="M453.8,413.4c-0.3,1.2-1.7,1.2-2.1,2.2c-1.2-0.6-1.4,0.9-2.3,1.1c-0.4,0.1-0.6,0.6-0.6,1c-0.1,0.4-0.1,0.7-0.5,0.9
	c-0.1,0.1-0.3,0.3-0.2,0.3c0.5,0.7-0.2,1.4,0,2c0.3,1.3-0.2,2.4-0.5,3.5c-0.1,0.4-0.1,0.7,0,1c0.1,0.2,0.2,0.4,0,0.6
	c-0.3,0.1-0.5-0.1-0.6-0.3c-0.3-0.3-0.2-0.7-0.1-1c0.2-1,0.4-1.9-0.4-2.7c-0.2-0.2-0.2-0.6-0.1-0.8c0.5-1.7,0.4-3.4-0.2-5
	c-0.3-0.7-0.1-1.1,0.7-1c0.6,0,1.3,0.2,1.6-0.1c0.5-0.4,0.6-1.3,0.6-1.8c0-1.6,1.2-2.3,2-3.3c0.3,0.4-0.1,0.9,0.4,1
	c0.4,0.2,0.5-0.4,0.7-0.6c0.1,0,0.1,0,0.2-0.1c1.3-0.5,2.9-0.3,3.8-1.7c0.1-0.2,0.6,0.1,0.6,0.4c0.1,1.1,0.9,1.1,1.7,1
	c0.5-0.1,1-0.2,1.2,0.4c0.2,0.5,0,0.9-0.5,1.2c-0.4,0.3-0.5,0.8-0.2,1.1c0.9,0.9,1.4,2.1,2.5,2.9c0.7,0.5,0.4,0.8-0.2,1.1
	c-0.4,0.2-0.8,0.1-0.6-0.5c0.1-0.3,0.2-0.7,0-0.6c-0.8,0.2-1.3-1-2.2-0.5c-0.1,0-0.2,0-0.3,0c-1.3-0.6-2.6-1-4.2-0.8
	C453.4,414.5,454.2,413.8,453.8,413.4"/>
<path d="M497.8,530c0.3,1.4,0.6,2.8,1,4.1c0.2,0.5,0.3,0.8,0,1.3c-0.2,0.2-0.3,0.5-0.1,0.8c0.2,0.3,0.5,0.2,0.8,0.1
	c0.4-0.1,0.2-0.4,0.1-0.6c0-0.1,0-0.3,0-0.3c1.3-0.3,0.5-1,0.3-1.6c-0.1-0.2,0.1-0.5,0.2-0.7c0.1-0.2,0.1-0.5,0.4-0.4
	c0.3,0.1,0.1,0.3,0.2,0.5c0.1,0.9-0.2,1.8,0.5,2.6c0.4,0.5,0.1,1-0.2,1.5c-0.3,0.4-0.6,0.2-1,0.1c-0.7-0.1-1.5-0.1-2.1-0.6
	c-0.6-0.6-1.4-0.8-1.6,0.4c0,0.1-0.2,0.2-0.3,0.3c-0.5-0.6,0.3-1,0-1.6c-0.3,0.3-0.6,0.6-1,0c-0.2-0.3-0.5-0.5-1,0
	c-0.5,0.5-1.3,0.6-1.8,1.3c-0.2,0.3-0.7,0-0.9-0.3c-0.3-0.3-0.7-0.7-1-1c-0.1-0.1-0.6-0.1-0.2-0.5c0.2-0.2,0.2-0.7,0.7-0.6
	c1.6,0.1,3.1-0.9,3-2.5c-0.1-1.5,0.8-1.7,1.7-1.8c0.7-0.1,1.3,0,1.8-0.7C497.4,529.9,497.7,530,497.8,530L497.8,530z"/>
<path d="M550.6,519.3c-0.9,0.3-0.8,1.2-1.3,1.7c-0.2-1.1-0.1-1.5,1-3.5c0.3-0.5,0.2-0.8,0.1-1.3c-0.2-0.7,0.1-1.4,0.8-1.8
	c0.6-0.3,0.8-1,1.4-1.4c0.1-0.1,0.2-0.4,0.1-0.6c-0.2-0.2-0.4,0-0.5,0.1c-0.2,0.2-0.5,0.4-0.8,0.6c-0.3,0.2-0.6,0.4-0.9,0
	c-0.2-0.3,0-0.6,0.3-0.9c0.5-0.4,1.1-0.8,1.8-0.9c0-0.5-0.4-0.3-0.5-0.5c1.8-0.7,0.9-2.1,0.9-3.3c0.2,0,0.3,0.1,0.4,0.3
	c0.3,1.5,0.8,2.9,0.4,4.5c-0.3,1.1-0.7,2.2,0,3.4c0.4,0.8-0.9,2.6-1.7,2.7c-0.1,0-0.3,0-0.4,0.1c-0.5,0.2-0.5,0.7-0.6,1.1
	c0,0.2,0,0.3,0.2,0.3c0.4,0.1,0.7-0.2,0.9-0.4c0.2-0.2,0.3-0.5,0.5-0.7c1-0.9,2-0.6,2.4,0.7c-0.6,0.3-1.2-0.3-1.8-0.1
	c-1.1,0.3-2,1.8-1.8,3c0.1,0.6,0.8,1.2,0,2.1c-0.3,0.3,0.8,0.3,1,0.8c0,0.4-0.6,0-0.6,0.5c0.8,0.2,1.6,1,2.6,0.3
	c0.3-0.2,0.5,0.1,0.4,0.4c-0.2,0.3-0.2,0.9-0.7,1c-0.4,0.1-0.7-0.1-1-0.9c-0.2,1.6-1.7,1-2.1,1.9c0,0.1-0.4-0.3-0.4-0.5
	c0-0.6,0-1.2,0-1.7c0-0.3,0.1-0.7-0.3-0.8c-0.4-0.1-0.3,0.5-0.6,0.5c0.1-0.7,0.1-1.3,0.8-1.9c0.8-0.7,0.2-1.6,0.2-2.3
	C550.5,521,550.4,520.2,550.6,519.3"/>
<path d="M507,541.8c0.2-0.5,0.6-0.7,1-0.7c1-0.2,1.5-0.8,1.7-1.7c0.2-0.7,0.5-1.1,1.1-1.4c0.5-0.3,0.6-0.7,0.4-1.2
	c-0.3-0.7,0-1.1,0.5-1.6c0.7-0.6,1.2-1.4,2-1.9c0.1-0.1,0.2-0.2,0.1-0.4c-0.1-0.2-0.4-0.5-0.1-0.7c0.3-0.2,0.6,0.2,0.8,0.4
	c0.8,0.7,1.4,1.6,1.9,2.5c0.2,0.3,0.2,0.6-0.1,0.8c-0.4,0.2-0.8,0.4-0.7,1c0,0-0.2,0.2-0.3,0.2c-0.3,0.1-0.5-0.2-0.5-0.4
	c-0.2-0.9-0.7-0.6-1.2-0.5c-0.3,0.1-0.6,0.4-0.2,0.7c0.5,0.5,0.8,1.2,1.3,1.6c0.5,0.4,0.7,0.8-0.2,1c-0.5,0.1-0.9,0.4-1.4,0.4
	c-0.8,0-1,1.1-1.8,1.1c0,0.7-0.5,0.5-0.9,0.5c-0.3,0-0.7-0.1-1,0.4c-0.2,0.4-0.8,0.3-1.2,0.1C507.9,542,507.5,542,507,541.8"/>
<path d="M504.3,577.3c-1.3,0.2-1.3,0.9-1,1.9c0.2,0.5-0.1,1.1-0.3,1.7c-1.2-0.5-1.4-0.3-1.5,1c0,0.3,0.1,1.4-0.9,1.5
	c-0.3,0-0.1,0.9,0.2,1.2c0.3,0.3,0.6,0.5,0.1,0.9c-0.6,0.6-0.4-0.4-0.7-0.3c0,0-0.1-0.1-0.1-0.1c-1.2,0.3-1.8-0.9-2.8-1.1
	c-0.3-0.1-0.6-0.1-0.5-0.6c0-0.1,0.6-0.1,0.2-0.4c-0.1-0.1-0.4-0.1-0.5,0.1c-0.3,0.5-0.6,0.9-0.3,1.5c0.2,0.5,0.5,1,0.3,1.8
	c-0.4-0.6-0.8-1.2-1.1-1.7c-0.1-0.3-0.2-0.4-0.5-0.4c-0.3,0-0.4,0.3-0.4,0.5c0,0.6-0.3,0.7-0.8,0.4c-1.1-0.6-2-1.5-3.4-1.3
	c0.5-0.5,0.8-0.7,1.4-0.5c1,0.3,2.1,0.2,3.2,0.3c0.2,0,0.5,0,0.4-0.2c-0.2-1.1,0.6-0.9,1.2-0.9c0.4,0,0.7,0,1-0.5
	c0.6-0.9,1.5-1.4,2.6-1.3c0.4,0,0.4-0.3,0.4-0.6c0-0.6-0.3-1-0.7-1.3c0.2-0.2,0.4-0.1,0.5,0c0.6,0.4,1.1,0.6,0.9-0.5
	c0-0.1,0.1-0.4,0.2-0.5c0.7-0.7,0.6-0.9-0.4-1c-0.5,0-0.7-0.3-0.8-0.8c0-0.2,0-0.4,0.2-0.5c0.4-0.2,0.7,0.1,1,0.3
	c0.2,0.2,0.5,0.3,0.6,0.5c0.3,0.6,0.7,0.8,1.3,0.5C503.7,576.8,504,576.9,504.3,577.3"/>
<path d="M552.5,551.9c1-1.8,0.1-3.8,0.8-5.6c0.2-0.4,0.2-0.9,0.6-1.2c0.7-0.4,0.1-0.9,0-1c-0.8-0.3-0.4-0.7-0.1-0.9
	c0.8-0.5,1.6-0.7,2.6-0.7c-0.3,0.2-0.6,0.3-0.8,0.5c-0.2,0.2-0.9,0.6,0,0.9c0.2,0.1,0.3,0.3,0.2,0.5c-0.1,0.2-0.5,0.3-0.1,0.6
	c0.2,0.1,0.5,0.1,0.7-0.1c0.5-0.5,0.8-0.3,0.9,0.3c0.1,0.5,1,0.9,0.2,1.6c-0.2,0.2,0.3,0.3,0.5,0.4c0.2,0.1,0.5,0.2,0.4,0.5
	c-0.1,0.2-0.5,0.2-0.6,0c-0.8-0.9-1.4,0.5-2.1,0.1c0.4,1-1.1,1.1-1,2c0,0.3,0.4,0.7,0.4,1c-0.2,1.3,1.1,2,1,3.3
	c0,0.2,0.1,0.5-0.2,0.6c-0.8,0.2-1.4,0.9-2.4,1c0.3-0.4,0.7-0.7,0.8-1.1c0.2-0.4,1.1-0.6,0.5-1.3c-0.7-0.8-0.8-0.8-1.9-0.1
	c0-0.6,0.4-0.8,0.6-1.2c0.2-0.3,0.6-0.6,0.2-0.9c-0.4-0.3-0.7,0.1-0.8,0.4C552.7,551.6,552.6,551.8,552.5,551.9"/>
<path d="M465.5,411.1c-0.4-0.2-1.1,0.1-1.2-0.5c-0.1-0.6,0.4-1,0.9-1.2c0.4-0.2,0.8-0.5,0.5-1.1c-0.1-0.2,0-0.4,0.2-0.6
	c0.2-0.1,0.3-0.1,0.5,0.1c0.7,0.6,1.5,1,2.3,1.5c0.6,0.3,1.3,0.7,0.2,1.5c1-0.1,1.5,0.3,2.1,0.7c0.7,0.5,1.7,0.7,2.5-0.3
	c-0.3,1.1-1.3,1.6-2.2,1.1c-0.5-0.3-1-0.5-1.6-0.1c-0.1,0.1-0.3,0.1-0.3,0.1c-0.9-1.1-1.5-0.2-2.2,0.4c-0.1,0.1-0.3,0.2-0.5,0.2
	c-1.2,0.1-1.6,0.4-1.2,1.6c0.2,0.6,0.1,1-0.1,1.6c-0.3,0.9-1.3,1.2-2,0.5c-0.3-0.4-0.1-1,0.3-1c0.9,0,0.7-0.7,0.6-1
	c-0.6-1.3,0.1-2.1,0.8-3C465.3,411.5,465.5,411.3,465.5,411.1"/>
<path d="M539.2,543.5c-0.5,0.2-0.2,0.7-0.8,0.8c0.3-1.6,0.6-3.1,1.3-4.7c0.4,0.5,0,0.7,0,0.9c-0.1,0.4,0.2,0.8,0.4,0.6
	c0.6-0.5,1.5-0.5,1.9-1.3c0.3-0.8,0.6-0.4,0.8,0c0.4,0.8,0.3,1.8,0.8,2.5c0,0,0.3,1.1-0.7,0.7c-0.4-0.2-1.2,0.3-1.7,0.7
	c-0.4,0.3,0.1,1.1,0.6,1c0.8-0.1,0.8,0.3,0.8,0.9c0.1,0.9,0.3,1.7-0.7,2.3c-0.3,0.2-0.7,0.7-0.5,1.3c0.1,0.2,0,0.4-0.2,0.4
	c-0.3,0.1-0.4-0.2-0.4-0.4c0-0.8-0.5-1.7,0-2.5c0.1-0.2,0.2-0.5,0-0.7c-0.3-0.3-0.4-0.1-0.6,0.1c-0.5,0.4-0.7,0.2-0.7-0.4
	C539.3,545.1,539.3,544.3,539.2,543.5"/>
<path d="M408.4,479.8c-0.4,0-1.6-1.4-1.6-2c-0.2-1.2-0.3-2.3-1-3.4c-0.3-0.5,0.1-1.6,0.1-2.5c0-0.2,0.1-1,0.6-0.8
	c0.3,0.1,0.5,0.6,0.6,1.1c0.1,0.6,0.5,1.2,1.1,1.2c0.7,0.1,1.5,0,1.8-0.9c0.1-0.2,0.1-0.6,0.5-0.5c0.3,0.1,0.3,0.5,0.4,0.8
	c0.1,0.3,0.1,0.4-0.2,0.4c-0.2,0-0.5,0.2-0.5,0.3c0.5,1.4-1.1,2.6-0.1,4.1C410.5,478.4,409.3,479.8,408.4,479.8"/>
<path d="M484.5,548.9c0.2-1.1,1.1-1.6,0.4-2.5c-0.1-0.1,0-0.3,0.2-0.3c0.3-0.1,0.5,0.1,0.7,0.2c0.2,0.1,0.3,0.5,0.6,0.3
	c0.4-0.3-0.1-0.4-0.2-0.6c-0.2-0.3,0-0.5,0.2-0.8c0.5-0.4,1-0.4,1.5-0.2c1.6,0.5,1.7,0.4,2-1.1c0.1-0.3,0-0.6-0.3-0.7
	c-0.2-0.1-0.5-0.1-0.4-0.5c0.1-0.2,0.3-0.3,0.5-0.3c0.8-0.1,1.6-0.4,1.8,0.7c0,0.2,0.2,0.3,0.4,0.3c0.3,0,0.3-0.3,0.4-0.5
	c0.1-0.8,0.6-1,1.2-0.7c0.9,0.4,0.2,0.9,0.1,1.3c-0.1,0.6-0.6,0.7-1,0.3c-0.6-0.5-0.6,0-0.8,0.4c-0.3,0.9-0.8,1.8-0.4,2.9
	c0.1,0.3-0.2,0.6-0.5,0.8c-0.4,0.2-0.4-0.2-0.6-0.5c-0.5-0.8-1.2-0.5-1.6-0.1c-0.8,0.7-1.3,1.5-2.5,0.5
	C485.7,547.5,485.2,548.4,484.5,548.9"/>
<path d="M484.7,537.9c-1.3,1.5-3,2.5-4.9,3.2c-1.8,0.6-3.5,1.4-5.3,1.7c-0.4,0.1-0.6,0.5-0.9,0.7c-0.5,0.4-0.9,0.4-1.2-0.2
	c-0.2-0.4-0.3-0.8,0.3-0.7c0.5,0.1,0.7-0.1,0.9-0.5c0.3-0.5,0.9-1,1.6-0.9c0.8,0.1,1.6-0.2,2.3-0.6c0.5-0.3,1.3-0.5,1.2-1.4
	c0-0.3,0.1-0.4,0.4-0.5c0.5-0.1,0.9-0.5,1.3-0.8c0.4-0.3,0.9-0.6,1.5-0.2c0.8,0.7,1.5,0.7,2.3,0.1
	C484.4,537.8,484.6,537.8,484.7,537.9L484.7,537.9z"/>
<path d="M572,442.2c0.2,0.5,0.4,0.9,0.6,1.3c0.1,0.3,0.4,0.6,0,0.9c-0.3,0.2-0.7,0.2-0.9,0c-1.1-1-2.5-1.8-3.9-2
	c-2.1-0.3-3.5-1.8-5.4-2.3c-1.3-0.4-2.1-1.3-3-2.2c-0.2-0.2,0.1-0.8,0-1.2c0.8,0.6,1.7,1.2,2.5,1.8c0.7,0.5,1.4,0.7,2.3,1
	c1.1,0.3,2.1,0.8,3,1.4c1.1,0.8,2.4,1.1,3.5,1.8C570.9,442.9,571.6,442.9,572,442.2"/>
<path d="M467.6,561c-0.2,0.3,0.2,0.9-0.3,0.8c-0.3,0-0.9,0.3-1-0.5c-0.1-0.7-1-0.5-1.8,0.5c0-0.3,0-0.6,0-0.8c0-0.4-0.3-0.7-0.7-0.8
	c-0.5-0.1-0.3,0.4-0.4,0.7c-0.1,0.2,0,0.4-0.1,0.5c-0.1,0.3-0.2,0.5-0.5,0.6c-0.1,0-0.2-0.1-0.3-0.1c-0.1-0.3,0.1-0.5,0.2-0.7
	c0.3-0.5,0.5-1,0.2-1.6c-0.3-0.6,0.5-1.1,0.4-1.8c0-0.1,0.4,0,0.6,0.1c0.6,0.4,1.3,0.7,1.5,1.5c0.5-0.3,0-0.8,0.2-1.2
	c0.1,0.1,0.6,0.2,0.7,0.2c0.3,0.2,0.9,0.1,0.8,0.6C467,559.8,467.4,560.4,467.6,561L467.6,561z"/>
<path d="M470,419.5c-0.5-2.5,0.8-5.7,2.6-6.5c0.2,0.2,0.1,0.5,0,0.7c-0.1,0.5-0.2,1,0.4,1.4c0.5,0.4,0.8,1.1,0.2,1.8
	c-0.1,0.2-0.3,0.4-0.5,0.3c-0.3-0.1-0.2-0.3-0.1-0.5c0.1-0.3,0.2-0.6-0.2-0.7c-0.3-0.1-0.4,0.3-0.4,0.5c-0.1,0.7-0.4,1.2-1,1.5
	C470.5,418.3,470.4,419,470,419.5"/>
<path d="M441.2,529.6c1.3-0.6,3,0.1,3.4,1.3c0.1,0.4,0.2,0.8,0.5,1.1c0.2,0.2,0.3,0.5,0.6-0.1c0.2-0.6,0.7-0.4,1,0
	c0.3,0.4,0.8,0.8,1.1,1.1c0.4,0.4,0.9,0.8,0.3,1.3c-0.5,0.4-1.1,0.3-1.7-0.2c-1.4-1.2-2.5-2.8-4.1-3.8
	C442.1,530.1,441.6,530.1,441.2,529.6"/>
<path d="M427.6,439.9c0.3-0.7,0.6-0.7,0.9-0.9c0.5-0.4,1.1-0.6,0.4-1.3c-0.2-0.2-0.1-0.4,0-0.6c0.2-0.2,0.4-0.2,0.6,0
	c1,0.7,1.9,1.1,2.4-0.5c0.1-0.4,0.6,0,0.9-0.1c0.3,0,0.4,0.1,0.5,0.5c0.1,0.8-0.3,1.3-1.1,1.3c-0.6,0-1,0.3-1.1,0.9
	c0,0.4-0.1,0.8-0.4,1.1c-0.3,0.3-0.6,0.4-1,0.2c-0.4-0.3,0-0.6,0.1-0.8c0.2-0.2,0.6-0.4,0.3-0.7c-0.2-0.3-0.5,0-0.8,0.1
	C428.9,439.4,428.4,439.6,427.6,439.9"/>
<path d="M570.4,491.2c0.1-0.5-0.3-0.6-0.5-0.8c-0.4-0.2-0.5-0.5-0.3-0.9c0.1-0.4,0.5-0.2,0.7-0.2c0.1,0,0.3,0.2,0.4,0
	c0.6-1.3,1-0.1,1.2,0.2c0.5,1,0.8,1.9,0.3,3.1c-0.6,1.6-0.7,1.3-1.2,0.1c-0.2-0.4-0.7-0.6-1-0.9c-0.2-0.2-0.4-0.5-0.1-0.8
	C570,490.7,570.1,491.3,570.4,491.2"/>
<path d="M560.6,479.8c0.6,0.7,1.3,0.5,1.9,0.9c0.4,0.3,1.3,0.3,1,1.2c-0.1,0.2,0.3,0.3,0.5,0.3c0.9-0.1,1,0.1,0.4,0.8
	c-0.5,0.5,0,0.7,0.3,1c0.2,0.2,0.5,0.4,0.3,0.7c-0.2,0.4-0.5,0-0.7,0c-0.9,0.1-1.2-0.4-1.4-1.2c-0.1-0.5-0.6-0.9-1-1.3
	C561.2,481.8,560.7,481.1,560.6,479.8"/>
<path d="M554.3,431.4c0.3-0.6,0.1-1.1,0.5-1.2c0.4-0.1,0.7,0.3,0.9,0.6c0,0.1,0.1,0.2,0.1,0.2c1.2,0.3,0.7,1,0.5,1.8
	c-0.5-0.4-0.9-1-1.6-0.8c-0.3,0-0.3,0.4-0.4,0.7c0.3,0.3,1-0.1,1.2,0.5c-0.4,0.4-1,0.1-1.3,0.5c-0.2,0.2-0.6-0.1-0.4-0.3
	c0.4-0.7-0.1-1.3,0-2c-0.6,0.4-0.3,0.9-0.4,1.2c-0.1,0.2-0.2,0.4-0.3,0.4c-0.2,0-0.2-0.2-0.3-0.3c-0.6-0.9,0-1.8,0-2.8
	c0-0.4,0.3-0.3,0.5-0.1C553.8,430,554.2,430.5,554.3,431.4"/>
<path d="M573.4,442.6c0.5,0,0.7,0.1,1,0.4c0.7,1.1,1.4,2.1,3,1.9c0.8-0.1,1.5,0.6,1.7,1.6c0.1,0.7-0.4,0.5-0.7,0.4
	c-1.1-0.4-2.1-0.9-3.1-1.7c-0.2-0.2-0.4-0.7-0.6,0c-0.4-0.2-1.4,0.4-0.9-0.9c0.2-0.4-0.4-0.6-0.6-0.9c-0.1-0.2-0.3-0.4-0.1-0.7
	C573.1,442.6,573.4,442.6,573.4,442.6"/>
<path d="M521.9,576.5c0,0.2,0,0.4-0.2,0.6c-0.7,0.5-0.6,1.1-0.1,1.7c0.3,0.5,0.8,1.1,0.1,1.5c-0.6,0.3-1.4,0-1.7-0.7
	c-0.5-0.8-0.4-1.8-0.4-2.6c0-0.8,1.1-0.9,1.9-1C521.8,575.8,521.8,576.2,521.9,576.5"/>
<path d="M492.5,554.9c0.1,0.6-0.5,0.9-0.8,1.2c-0.3,0.3-0.7-0.2-1-0.4c-0.5-0.4-1-1.1-1.5,0c-0.3,0.6-0.7,0-1.1-0.1
	c-0.3-0.1-0.9-0.2-0.6-0.7c0.2-0.4,0.6-0.9,1.1-0.6c0.8,0.3,1.2,0.1,1.7-0.5c0.5-0.5,1.2,0.2,1.9,0
	C492.4,554.2,492.4,554.6,492.5,554.9"/>
<path d="M506.2,558.1c0.6-0.7,0.7-1.9,2-1.9c0.3,0,1.4-0.5,1-1.5c-0.1-0.2-0.1-0.4,0.2-0.4c0.4-0.1,0.8-0.2,1.2,0
	c0.2,0.1,0.3,0.3,0.1,0.4c-0.4,0.3-0.1,0.6,0,0.9c0.1,0.4,0.2,0.9-0.2,1.2c-0.4,0.3-0.8,0.5-1.2,0.2c-0.8-0.4-1.4,0-1.8,0.5
	C507.2,557.9,506.8,558,506.2,558.1"/>
<path d="M553.8,537.9c-0.1-0.5,0.6-0.3,0.5-0.6c-0.1-0.2-0.4-0.3-0.7-0.4c-0.3-0.1-0.6,0-0.9-0.1c-0.3-0.1-0.8,0.3-1-0.1
	c-0.2-0.4,0.1-0.9,0.3-1.2c0.4-0.5,1-0.9,1.5-1.3c0.3-0.3,0.7,0.1,0.6,0.3c-0.5,0.6,0.1,0.8,0.4,1c0.3,0.3,0.5,0.6,0.6,1
	C555.1,537.6,555,538.1,553.8,537.9"/>
<path d="M503.6,531.7c1.1,0,0.7,1,0.8,1.5c0.2,0.7-0.3,0.4-0.7,0.4c-0.9,0-1.3,0.7-1,1.8c0.1,0.2,0.2,0.4-0.1,0.5
	c-0.3,0.1-0.6-0.1-0.5-0.3c0.2-0.7-0.4-1.2-0.4-1.8C501.7,532.4,502.2,531.7,503.6,531.7"/>
<path d="M536.4,526.2c0.4,1,0.3,2,0,2.9c-0.2,0.7-0.9,0.9-1.6,0.9c-0.6,0-0.6-0.5-0.3-0.8c0.4-0.6,0.6-1.2,0-1.8
	c-0.2-0.2-0.2-0.5,0-0.7c0.2-0.3,0.5-0.3,0.8-0.1C535.8,527.1,536.2,526.9,536.4,526.2"/>
<path d="M448,539.4c0.3-0.7,0.7-1.2,1.6-0.8c0.3,0.2,0.6,0.1,0.9-0.2c0.5-0.6,1.1-0.8,1.8-0.8c0.7,0,1.3-0.2,2-0.5
	c-0.7,0.6-0.9,1.6-1.8,1.9c-0.3,0.1-0.7,0.7-0.9-0.2c-0.1-0.4-0.5,0.1-0.8,0.1c-0.6,0.1-1.1,1.1-1.8,0.1
	C448.8,538.9,448.5,539.7,448,539.4"/>
<path d="M515,514.4c0.3,0.7,0.1,1.5,0.9,1.6c0.5,0.1,0.4-0.4,0.6-0.6c0.2,0.2,0.3,0.5,0.5,0.6c1.5,0.3,0.6,1.3,0.5,1.9
	c-0.1,0.6-0.5,0.3-0.9,0.1c-0.4-0.3-0.8-1-1.4-0.3c-0.1,0.2-0.4-0.1-0.3-0.2c0.7-0.9-0.1-1.8,0-2.7
	C514.8,514.8,514.8,514.7,515,514.4"/>
<path d="M467.7,561c0-0.1,0-0.2,0-0.3c0.4-0.6,0.7-1.1-0.2-1.6c-0.1-0.1-0.2-0.5,0.2-0.7c0.9-0.3,1.8,0.1,2.7,0
	c0.2,0,0.3,0.1,0.2,0.3c-0.1,0.2-0.2,0.4-0.4,0.4c-1.1,0-1.3,0.4-0.7,1.3c0.2,0.3,0.1,0.7,0,1.1c0,0.1-0.2,0.4-0.3,0.4
	c-0.2,0-0.3-0.2-0.3-0.4c-0.1-0.8-0.3-1.3-1-0.3C468,561.2,467.8,561.1,467.7,561L467.7,561z"/>
<path d="M475.1,533.6c0.2-0.5,0.4-1.1-0.4-1.4c-0.1,0-0.2-0.2-0.1-0.4c0.1-0.2,0.4-0.2,0.5-0.1c0.6,0.6,1.3,0.7,2.1,0.5
	c0.2-0.1,0.5,0.3,0.5,0.6c0.1,0.3,0,0.6-0.3,0.8c-0.5,0.3-0.9,0.5-1.4,0.8C475.3,534.7,475.1,534.3,475.1,533.6"/>
<path d="M516.2,392c-0.1-0.6-0.6-0.8-0.7-1.4c0.9,0.3,1.2,0.9,1.3,1.7c0.1,0.6-1,1-1.6,0.7c-0.9-0.5-1.5-1.3-2.5-1.7
	c-0.2-0.1-0.1-0.5-0.1-0.5c0.8,0.1,0.3-1,0.9-0.9c0.1,0,0.2,0.1,0.2,0.2C514,391.4,514.9,392.2,516.2,392"/>
<path d="M446.9,538.6c-1.3-0.2-2.2-0.9-3.2-1.5c-0.2-0.1-0.2-0.3-0.1-0.4c0.2-0.1,0.3-0.3,0.6-0.2c0.3,0.2,0.5,0.4,0.7,0.7
	c0.2,0.2,0.4,0.4,0.6,0.2c0.9-1,1.9,0.3,2.8-0.2c0.2-0.1,0.3,0.3,0.2,0.4C448,538,447.6,538.6,446.9,538.6"/>
<path d="M552.9,557.9c0-1.6,1.6-1.7,2.3-2.7c0.1-0.1,0.3-0.1,0.4,0c0.2,0.2,0.2,0.4,0.1,0.6c-0.2,0.6-0.5,1.2-0.3,1.9
	c0,0.2-0.1,0.4-0.4,0.4c-0.2,0-0.3,0-0.3-0.2c0-1.4-0.7-0.4-1.1-0.3C553.4,557.8,553.3,558,552.9,557.9"/>
<path d="M474.3,418.2c0.2-0.7-0.6-1.7,0.9-1.9c0.2,0,0.2-1.2,0.6-1.8c0.2-0.3,0.2-0.8,0.7-0.6c0.6,0.2,0.4,0.7,0.3,1.1
	c0,0.7-0.7,1-1.1,1.4C475.3,417,475,417.8,474.3,418.2"/>
<path d="M562,436.4c-0.5-1.6-2.1-1.6-3.1-2.4c-0.2-0.2-0.7-0.3-0.6-0.7c0.1-0.5,0.5-0.4,0.9-0.4c0.7,0.1,1.3,0,1.4,0.9
	c0,0.4,0.4,0.5,0.7,0.7C561.8,435.1,562.2,435.6,562,436.4"/>
<path d="M484.2,399c0.1,1.1,0.8,2,0.8,3.2c-0.6-0.5-1.1-0.9-1.8-0.5c-0.6,0.3-0.6-0.3-0.5-0.6c0-0.4-0.4-1.1,0.4-1.1
	C483.9,400.1,484,399.6,484.2,399"/>
<path d="M467.3,595c0.2,0.7-0.5,1.3,0.1,2.3c-0.8-0.5-1.2-1-2-0.6c-0.4,0.2-1-0.3-1.1-0.8c-0.1-0.6,0.5-0.6,0.9-0.5
	C466,595.4,466.5,594.7,467.3,595"/>
<path d="M410,502.5c1.1,0.4,2.2,0.8,2.4,2.3c0.1,0.6,0.8,1.3,1.2,2.1c0.1,0.1,0.2,0.3,0.1,0.5c-0.7-0.7-1.5-1.2-1.9-2.2
	C411.4,504.1,410.8,503.2,410,502.5"/>
<path d="M459.5,555.8c0,0.2-0.1,0.5-0.2,0.8c-0.4-0.4-0.6-1.1-1.3-0.9c-0.2,0-0.3-0.4-0.2-0.6c0.1-0.3,0.3-0.2,0.5-0.1
	c0.4,0.2,0.8,0.3,1.1,0.2c0.6-0.1,0.9,0.1,1.2,0.6c0.3,0.5,0.6,0.9,1,1.3c0.2,0.2,0.4,0.5,0,0.7c-0.2,0.1-0.6,0.2-0.7-0.2
	C460.7,556.7,459.9,556.5,459.5,555.8"/>
<path d="M552.2,467.2c-1,1.1-1.9,1-2.9,1.1c-0.2,0-0.4-0.1-0.3-0.3c0.1-0.5,0.1-1.1,0.4-1.5c0.2-0.2,0.4-0.1,0.6,0.1
	C550.6,466.9,551.2,467.3,552.2,467.2"/>
<path d="M552.3,471.7c-0.2-0.5,0.4-0.8,0.2-1.3c-0.4,0.3-0.8,0.8-1.5,0.4c0.5-0.6,0.6-1.4,1.3-1.8c0.2-0.1,0.4-0.4,0.6-0.1
	C553.7,469.8,553.4,471,552.3,471.7"/>
<path d="M517.5,520.4c-0.2-0.5,0-1,0.1-1.5c0.3-1,0.9-1.9,0.6-3c0-0.2,0-0.8,0.5-0.7c0.3,0.1,0.1,0.5,0.2,0.8
	c0.2,1.4-0.5,2.6-0.8,3.9C517.9,520.1,517.9,520.4,517.5,520.4"/>
<path d="M466.8,547.8c-1.1,0.8-2.1,1.4-3.4,1.1c-0.4-0.1-0.8-0.1-1.1-0.4c-0.1-0.1-0.3-0.3-0.2-0.6c0-0.1,0.1-0.1,0.2-0.1
	c0.3,0,0.3,0.2,0.3,0.4c0.2,0.8,0.6,0.3,0.8,0.1C464.5,547.8,465.6,547.5,466.8,547.8"/>
<path d="M454.4,542.2c1.5-0.7,3.1,0.1,4.7-0.2C457.5,542.9,456,542.6,454.4,542.2"/>
<path d="M565,448.8c-0.4,0-1.6-1.4-1.6-1.9c0-0.2,0.2-0.3,0.3-0.3c0.5,0.2,1.1,0.1,1.7,0.5c0.6,0.4,0,0.9,0.3,1.4
	C565.6,448.8,565.2,448.8,565,448.8"/>
<path d="M503.1,526.6c0.1-0.8-0.4-1.6,0.5-2.1c0.2-0.1,0.3-0.3,0.3-0.5c0.1-0.4,0.1-0.7,0.6-0.8c0.2,0,0.3,0.1,0.4,0.3
	c0.1,0.4,0.3,1.1,0,1.2C503.8,524.8,503.9,526,503.1,526.6"/>
<path d="M550.8,532.4c0.2-0.6,0.8-1,0.9-1.7c0-0.2,0.4-0.4,0.5-0.2c0.2,0.7,1.2-0.2,1.2,0.6c0,0.4-0.2,0.6-0.5,0.8
	C552.3,532.6,551.5,531.8,550.8,532.4"/>
<path d="M513.6,526.7c-0.5-0.6-0.4-1.1-0.3-1.4c0.4-0.9,0.8-2,1.8-2.5c0.2-0.1,0.3-0.1,0.4,0c0.2,0.2,0.1,0.5-0.1,0.7
	c-0.8,0.6-0.9,1.6-1.6,2.2C513.6,525.8,513.6,526.2,513.6,526.7"/>
<path d="M431.6,442.5c-0.3,0.4,0,0.7,0.2,1.1c0.2,0.4,0.2,1-0.2,1.1c-0.5,0.2-0.5-0.4-0.6-0.7c-0.1-0.4-0.3-0.8-0.6-1.1
	c-0.2-0.3-0.3-0.6,0-0.8c0.2-0.2,0.4-0.6,0.8-0.3C431.5,441.9,431.6,442.2,431.6,442.5"/>
<path d="M538.9,458.3c-0.4-0.3-0.7-0.7-1.1-0.4c-0.3,0.2-0.6,0.3-0.7-0.2c-0.1-0.4,0-0.7,0.4-0.9c0.3-0.2,0.7-0.3,1-0.4
	c0.6-0.3,0.9-0.1,0.7,0.6C539.1,457.5,539,457.8,538.9,458.3"/>
<path d="M505.3,389.3c-1-0.8-2.6-0.3-3.2-1.9c1-0.1,1.9,1.3,2.9,0C504.3,388.2,505.3,388.5,505.3,389.3"/>
<path d="M429.5,445.5c0,0.5-0.2,0.9-0.6,1c-0.4,0-0.4-0.4-0.5-0.7c-0.2-0.5,0-1.1-0.2-1.7c-0.1-0.2,0-0.3,0.3-0.4
	c0.3,0,0.6,0,0.7,0.3C429.2,444.5,429.3,445,429.5,445.5"/>
<path d="M439.2,426.2c-0.4-1.7-0.1-3.4,0.4-5.1C439.5,422.8,439.7,424.6,439.2,426.2"/>
<path d="M433.1,433.9c-1.3-1.8,0.1-3.1,0.4-4.8c0.6,0.8,0.5,1.5,0.1,1.9c-0.6,0.8-0.7,1.5-0.5,2.4
	C433.2,433.6,433.1,433.7,433.1,433.9"/>
<path d="M531,446.2c0,0.4-0.3,0.5-0.5,0.3c-0.5-0.3-0.9-0.2-1.4,0.1c-0.3,0.2-0.6,0.3-0.9,0c-0.2-0.3-0.3-0.6-0.1-0.9
	c0.3-0.3,0.6-0.2,0.9,0c0.4,0.3,0.7,0,1.1-0.1C530.7,445.4,530.9,445.7,531,446.2"/>
<path d="M524.6,423.9c-0.6-0.4-1.2-0.7-1.9-1.1c-0.4-0.2-0.7-0.6-1.1,0c-0.1,0.1-0.3,0.1-0.4,0c-0.2-0.2-0.1-0.3,0.1-0.4
	c0.4-0.1,0.1-0.5,0.2-0.8c0.1-0.2,0.2-0.4,0.4-0.2C522.8,422.4,524,422.8,524.6,423.9"/>
<path d="M569,491.1c-0.6-1.1-1.2-1.9-1.6-2.7c-0.1-0.1-0.3-0.4,0-0.6c0.2-0.1,0.4,0,0.6,0.1C568.7,488.8,569.3,489.6,569,491.1"/>
<path d="M424,429.8c-0.5,0.1-0.7-0.2-0.6-0.6c0.1-0.5,0.1-1,0.7-1c0.6,0,1,0.3,1,0.9C425.1,429.9,424.3,429.5,424,429.8"/>
<path d="M583.2,463c0.9,0,1.1,0.9,1.7,1.3c0.1,0.1-0.3,0.4-0.4,0.4c-0.5-0.3-1.3,0.1-1.4-0.8c0-0.2-0.1-0.4-0.3-0.3
	c-0.2,0-0.6,0.5-0.6,0c-0.1-0.4,0.5-0.5,0.9-0.6C583.1,463,583.2,463,583.2,463"/>
<path d="M586.6,450.2c-0.8-0.7-1.8-0.9-2.6-1.4c-0.3-0.2-0.8-0.6-0.5-1c0.4-0.6,0.7,0.1,0.9,0.3
	C585.2,448.7,586.2,449.2,586.6,450.2"/>
<path d="M548.4,430.5c1,0,1.9,0.6,2,1.3c0,0.2,0,0.4-0.3,0.5c-0.2,0.1-0.3,0-0.3-0.2c0.1-1.1-0.8-0.7-1.3-0.8
	c-0.2-0.1-0.5,0-0.7-0.2c-0.1-0.1-0.2-0.3-0.1-0.5C547.9,430.2,548.2,430.4,548.4,430.5"/>
<path d="M585.7,466.3c0,0,0.2,0,0.3-0.1c0.2-0.2,0.5-0.6,0.8-0.2c0.3,0.3,0.2,0.8,0,1.1c-0.4,0.4-1,0.2-1.4,0.1
	c-0.3,0-0.6-0.4-0.5-0.8C585,466,585.3,466.2,585.7,466.3"/>
<path d="M406.6,463.9c1.5,0.3,1.5,1.8,2.2,2.7c0,0.1,0,0.2-0.1,0.3c0,0-0.2,0.1-0.3,0C408,465.9,406.8,465.2,406.6,463.9"/>
<path d="M539.2,539.7c0.2-1.4,1.3-2.4,1.4-3.9c0.4,0.8,0.1,1.4,0,2.2C540.4,538.8,539.2,538.8,539.2,539.7"/>
<path d="M514.9,594.8c-0.1-0.5-0.1-0.9-0.4-1.2c-0.4-0.6,0.1-0.9,0.4-1.3c0.1-0.2,0.4-0.3,0.6-0.1c0.4,0.4,0.2,0.7,0,1.1
	C515.3,593.7,515.2,594.2,514.9,594.8"/>
<path d="M540.6,533.8c-0.5-0.1-1.2-1.4-1.1-1.8c0.1-0.2,0.2-0.4,0.4-0.5c0.3-0.1,0.4,0.2,0.5,0.4c0.3,0.4,0.4,0.9,0.5,1.4
	C540.9,533.6,540.9,533.8,540.6,533.8"/>
<path d="M502.6,583.5c-0.1-0.3,0.1-0.3,0.2-0.4c0.2-0.1,0.4-0.1,0.6,0.1c0.4,0.7,0.7,1.5,1.1,2.2c0.1,0.2,0,0.4-0.2,0.5
	c-0.2,0.1-0.4,0.1-0.5-0.1C503.5,584.9,503.2,584.1,502.6,583.5"/>
<path d="M520.2,529.7c1.2-0.6,2.2-1.2,2.9-2.6c0,1.7-1.3,2.2-2,3C520.8,530.4,520.5,529.8,520.2,529.7"/>
<path d="M410.2,484.1c-0.3-0.6-0.5-1.1-0.7-1.6c-0.1-0.3-0.1-0.7,0.4-0.9c0.5-0.2,0.6,0.2,0.7,0.6
	C410.6,482.8,410.7,483.4,410.2,484.1"/>
<path d="M462.5,554.8c-0.1-1.3-1.9-0.6-1.9-1.9c0.6,0,1,0.7,1.8,0.2C462.8,553,462.9,554,462.5,554.8"/>
<path d="M553.3,538.4c0.3,0,0.7,0.1,0.9,0.4c0.1,0.2,0.2,0.4,0.1,0.6c-0.1,0.2-0.3,0.1-0.5,0c-0.2,0-0.4,0-0.6-0.1
	c-0.3-0.1-0.8,0.7-0.9-0.1C552.3,538.7,552.7,538.5,553.3,538.4"/>
<path d="M435.2,433.3c0.1-0.4,0-0.8,0.6-0.9c0.6,0,0.5,0.4,0.5,0.7c0,0.5,0,1-0.6,1C435.1,434.2,435.3,433.6,435.2,433.3"/>
<path d="M520.3,534.5c0-1.3,0.6-2.2,1.9-2.6C521.6,532.7,521,533.6,520.3,534.5"/>
<path d="M535.2,563.9c0-0.3,0-0.4,0-0.5c0.1-0.3-0.5-0.8,0-0.9c0.5-0.1,0.5,0.5,0.7,0.8c0.1,0.2,0.1,0.3,0.1,0.5c0,0.4,0.2,1-0.4,1
	C535.2,564.9,535.3,564.4,535.2,563.9C535.2,563.9,535.2,563.8,535.2,563.9"/>
<path d="M471.8,559.3c0.3,0.6,1.1,1.1,0.3,1.6c-0.7,0.5-1.4,0.3-1-0.8C471.1,560.1,471.6,559.8,471.8,559.3"/>
<path d="M540.4,522.4c0-0.3,0-0.7,0.5-0.7c0.6,0,0.7,0.5,0.6,0.9c-0.1,0.3,0.1,1-0.4,0.9C540.5,523.6,540.4,522.9,540.4,522.4"/>
<path d="M529.7,552c-0.5,0.4-1,0.9-1.5,1.4c-0.1,0.1-0.3-0.1-0.3-0.2c-0.1-0.2,0-0.4,0.1-0.5c0.3-0.4,0.8-0.6,0.9-1.1
	c0.1-0.2,0.2-0.3,0.4-0.2C529.6,551.5,529.7,551.7,529.7,552"/>
<path d="M404.6,479.2c0.5,1,0.2,1.7-0.4,2.4c-0.2,0.3-0.6,0.3-0.9,0c-0.3-0.4,0.1-0.5,0.3-0.6C404.5,480.7,404.3,479.8,404.6,479.2"
	/>
<path d="M460.8,412.2c0.4,0,0.6,0.1,0.6,0.5c-0.1,0.4-0.1,1-0.7,1c-0.5,0-0.8-0.5-0.7-0.8C460,412.5,460.5,412.3,460.8,412.2"/>
<path d="M574.5,499c0.6,1,1.4,1.8,2.1,2.7C575.2,501.3,574.2,500.1,574.5,499"/>
<path d="M556.1,475.3c-0.4-0.4-0.7-0.7-1.3-0.7c-0.2,0-0.7,0.2-0.6-0.3c0.1-0.4,0.4-0.7,0.9-0.5C555.8,474,556.2,474.5,556.1,475.3"
	/>
<path d="M568.7,456.8c-0.2-0.1-0.4,0-0.6,0.1c-0.3,0.2-0.6,0.1-0.8-0.2c-0.1-0.2,0-0.3,0.2-0.4c0.3-0.1,0.6-0.5,1-0.1
	c0.1,0.1,0.2,0.4,0.5,0.3c0.2,0,0.6-0.6,0.7,0C569.6,456.8,569.1,457,568.7,456.8"/>
<path d="M489.4,420.3c0.1-0.6,0.6-0.9,1.2-1c0.2,0,0.6,0,0.5,0.4c-0.2,0.6-0.9,0.8-1.4,1C489.5,420.8,489.4,420.6,489.4,420.3"/>
<path d="M568.6,420.7c-1.6-0.1-2.2-1.1-2.9-2C567,418.8,567.3,420.2,568.6,420.7"/>
<path d="M556.3,541.2c-0.3,0.5-0.9,0.4-1.3,0.7c-0.1,0.1-0.5-0.1-0.4-0.4c0.1-0.5,0.3-0.9,1-0.8
	C555.9,540.7,556.2,540.7,556.3,541.2"/>
<path d="M505.7,388.6c0.7-0.2,1.1-0.2,1.1,0.6c0,0.2,0,0.5,0.3,0.7c0.2,0.1,0.6-0.1,0.4,0.3c-0.2,0.3-0.6,0.2-0.8,0
	C506.3,389.7,506,389.2,505.7,388.6"/>
<path d="M582.3,447.7c-0.5,0.3-0.9,0.2-0.9-0.4c0-0.5,0.4-0.5,0.8-0.5c0.4,0,0.8,0.2,0.8,0.7C583,448.1,582.7,447.9,582.3,447.7"/>
<path d="M554.9,481c-0.1,0.3-0.3,0.5-0.5,0.4c-0.6-0.3-0.5-1.1-0.9-1.5c-0.2-0.2,0.1-0.4,0.4-0.3C554.7,479.8,554.3,480.8,554.9,481
	"/>
<path d="M457.1,544.9c0.8-0.2,1.4-0.2,1.9,0.1c0.2,0.1,0.4,0.4,0.3,0.6c-0.1,0.4-0.4,0.1-0.6,0C458.3,545.4,457.7,545.4,457.1,544.9
	"/>
<path d="M556.8,435.2c-0.4-0.8-0.4-0.8,0.6-2.4C557.5,433.9,557.4,434.2,556.8,435.2"/>
<path d="M517.6,598.9c0.6,0.7,0.2,1.5,0.3,2.3c0,0.2-0.2,0.3-0.4,0.3c-0.3,0-0.4-0.3-0.3-0.5C517.5,600.3,517.4,599.6,517.6,598.9"
	/>
<path d="M569.5,421.2c1.1,0.2,1.3,1.4,2.2,1.6C570.8,423.2,570.3,422.9,569.5,421.2"/>
<path d="M495.3,530.1c-0.3-0.1-0.6-0.2-0.5-0.6c0.1-0.3,0.1-0.8,0.6-0.7c0.4,0.1,0.6,0.4,0.6,0.8C496,530,495.6,530.1,495.3,530.1"
	/>
<path d="M573.1,493.5c0.8,0.3,0.9,1,1.3,1.9C573.5,494.9,572.7,494.7,573.1,493.5"/>
<path d="M499.9,419.1c0.2-0.4,0.4-0.7,0.8-0.6c0.4,0.1,0.9,0.2,0.9,0.7c0,0.3-0.3,0.3-0.5,0.2C500.7,419.4,500.2,419.5,499.9,419.1"
	/>
<path d="M510.7,526.3c-0.3-0.5-1,0.4-1.1-0.3c0-0.1,0.8-0.5,1.2-0.6c0.3-0.1,0.6,0.1,0.6,0.5C511.4,526.3,511,526.3,510.7,526.3"/>
<path d="M484.7,538c0-0.6-0.4-0.8-0.8-1c0-0.1,0-0.2,0.1-0.2c0.4-0.1,0.8-0.9,1.1-0.5C485.4,536.7,485,537.4,484.7,538
	C484.7,537.9,484.7,538,484.7,538"/>
<path d="M548.1,463c-0.3-0.1-0.4-0.4-0.4-0.7c0.1-0.4,0.2-0.7,0.7-0.7c0.4,0,0.4,0.4,0.4,0.6C548.6,462.6,548.5,462.9,548.1,463"/>
<path d="M528.9,449.8c0-0.7,0.4-1.1,0.6-1.5c0.1-0.2,0.3-0.4,0.5-0.2c0.2,0.1,0.1,0.3,0,0.5C529.7,448.9,529.5,449.5,528.9,449.8"/>
<path d="M559.7,501.3c-0.5,0.3-0.9,0.7-1.4,0.2c-0.2-0.2-0.1-0.6,0-0.8c0.2-0.4,0.4,0,0.6,0.1C559.2,501,559.4,501.1,559.7,501.3"/>
<path d="M411,462.3c-0.2-0.5-0.8-1-0.2-1.6c0.2-0.1,0.4-0.1,0.5,0C411.7,461.3,411.3,461.8,411,462.3"/>
<path d="M500,387.3c0-0.3,0-0.7,0.5-0.7c0.3,0,0.5,0.3,0.3,0.6c-0.1,0.3,0.1,0.8-0.4,0.9C500,388,500,387.6,500,387.3"/>
<path d="M433.6,446.1c0.6-0.1,0.8,0.5,1.2,0.6c0.2,0.1,0.4,0.1,0.2,0.4c-0.1,0.2-0.3,0.4-0.5,0.5c-0.2,0.1-0.3-0.1-0.4-0.3
	C434,446.9,433.8,446.5,433.6,446.1"/>
<path d="M482.2,529.9c-0.6,0.4-1,1.1-2.1,0.8C480.9,530.3,481.3,529.6,482.2,529.9"/>
<path d="M462.3,409.8c-0.1,0.6-0.5,1-1,1.1c-0.2,0.1-0.4-0.2-0.4-0.3c0.3-0.4,0.6-0.9,1-1.2C462.2,409.3,462.3,409.6,462.3,409.8"/>
<path d="M554.4,441.8c0.8,0.3,1.4,0.9,1.6,1.8C555.1,443.2,554.9,442.4,554.4,441.8"/>
<path d="M590.1,469.3c0-0.2,0.1-0.6,0.3-0.5c0.4,0.4,0.8,0.9,1.2,1.3c0.1,0.1-0.1,0.2-0.3,0.2C590.9,470.3,590.2,469.6,590.1,469.3"
	/>
<path d="M481.6,399.6c0.1,0.1,0.1,0.1,0.1,0.2c-0.1,0.6-0.4,1-1,1.1c-0.2,0-0.3-0.1-0.3-0.3C480.5,399.8,481.2,399.9,481.6,399.6"/>
<path d="M444.1,414.5c0.5,0.6,0.3,1.2,0.4,1.7c0,0.2,0,0.5-0.3,0.4c-0.2,0-0.4-0.3-0.3-0.5C444.1,415.7,443.9,415.1,444.1,414.5"/>
<path d="M554.3,490.5c0.2-0.6,0.4-1.2,0.9-1.2c0.3,0,0.4,0.6,0.4,0.7C555.4,490.4,554.9,490.3,554.3,490.5"/>
<path d="M477.6,414.8c-0.3-0.1-0.3-0.4-0.3-0.6c0-0.5,0.4-0.7,0.8-0.8c0.3-0.1,0.3,0.2,0.3,0.4C478.3,414.3,477.9,414.5,477.6,414.8
	"/>
<path d="M550.5,429.8c0.1-0.1,0.1-0.2,0.2-0.3c0.2-0.3,0.3-0.7,0.7-0.5c0.4,0.2,0.2,0.5,0.1,0.8c0,0.2-0.1,0.4-0.1,0.6
	C550.9,430.6,550.9,430,550.5,429.8C550.5,429.8,550.5,429.8,550.5,429.8"/>
<path d="M534.5,561.6c-0.6-0.4-0.7-0.8-0.4-1.3c0.1-0.2,0.3-0.3,0.5-0.2C535.2,560.7,534.4,561.1,534.5,561.6"/>
<path d="M451.9,409.5c0-0.4,0-0.5,0-0.5c0.3-0.4,0.7-0.7,1.2-0.6c0.2,0,0.2,0.3,0.2,0.4C453,409.6,452.3,408.9,451.9,409.5"/>
<path d="M515.4,411.6c-0.3-0.2-0.3-0.6-0.4-0.9c0-0.3,0.3-0.5,0.5-0.4c0.4,0.1,0.4,0.6,0.5,0.9C516.1,411.5,515.7,411.6,515.4,411.6
	"/>
<path d="M406.6,469.8c0,0.3,0.1,0.6-0.3,0.7c-0.3,0-0.5-0.2-0.4-0.5c0.1-0.3-0.1-1,0.4-1C406.8,469,406.4,469.6,406.6,469.8"/>
<path d="M559.9,555.1c-0.3,0.4-0.4,0.9-1.1,0.9c-0.2,0-0.2-0.3-0.2-0.3c0.6-0.1,0.2-1.2,1-1C559.9,554.8,560,554.8,559.9,555.1"/>
<path d="M515.6,542.1c-0.5-0.1-0.7-0.3-0.7-0.8c0-0.2,0.2-0.3,0.5-0.3c0.5,0.1,0.7,0.4,0.7,0.8C516.1,542.1,515.9,542.1,515.6,542.1
	"/>
<path d="M440.5,597.5c0.2-0.2,0.4-0.2,0.5-0.1c0.4,0.3,0.9-0.3,1.1,0.2c0.1,0.2,0,0.4-0.2,0.4C441.4,598,440.8,598.1,440.5,597.5"/>
<path d="M411.9,460.3c-0.3-0.2-0.6-0.4-0.6-0.7c0-0.2,0.1-0.6,0.4-0.6c0.4,0,0.6,0.3,0.6,0.7C412.2,460,412.1,460.2,411.9,460.3"/>
<path d="M552.9,473.5c0.3-0.6,0.7-1,1.2-1.3C554.3,473.1,554.1,473.3,552.9,473.5"/>
<path d="M444.6,441.1c-0.7-0.4-0.6-1.1-0.6-1.9C444.7,439.8,444.5,440.4,444.6,441.1"/>
<path d="M564.1,492.1c-0.4-0.1-0.4-0.5-0.6-0.7c-0.2-0.2-0.4-0.4-0.2-0.7c0-0.1,0.2-0.1,0.3-0.1c0.3,0,0.5,0.2,0.5,0.6
	C564.2,491.5,564.4,491.8,564.1,492.1"/>
<path d="M477.8,412c-0.3,0.3-0.1,1-0.8,1.1c-0.3,0-0.3-0.4-0.3-0.6C476.8,411.7,477.4,412.1,477.8,412"/>
<path d="M517.4,391.2c0.6-0.6,1.2-0.7,1.5,0.3C518.4,391.4,517.9,391.3,517.4,391.2"/>
<path d="M484.1,529.2c0.2-0.7,0.4-1.2,1-1.2c0.2,0,0.4,0.1,0.4,0.3C485.2,528.8,484.8,529,484.1,529.2"/>
<path d="M488.1,537.8c0,0.3-0.2,0.4-0.4,0.4c-0.4,0-0.7-0.2-0.7-0.6c0-0.3,0.1-0.4,0.4-0.4C487.7,537.2,487.9,537.4,488.1,537.8"/>
<path d="M424.1,489.8c0-0.4,0-0.7,0.4-0.6c0.9,0,0.9,0.8,1.1,1.3c0.1,0.2-0.2,0.4-0.4,0.3C424.7,490.7,424,490.6,424.1,489.8"/>
<path d="M431.2,509.2c-0.7-0.3-1.1-0.7-1.3-1.2c-0.1-0.2-0.1-0.5,0.2-0.7c0.3-0.2,0.5,0.1,0.6,0.2
	C431.1,508,431.1,508.5,431.2,509.2"/>
</svg>
